<svg width="358" height="325" viewBox="0 0 358 325" fill="none" xmlns="http://www.w3.org/2000/svg">
<g filter="url(#filter0_d_1019_298)">
<rect x="34.2668" y="93.4786" width="311.603" height="63.5763" rx="4.89049" transform="rotate(15 34.2668 93.4786)" fill="#F3F4F7"/>
<rect x="33.3781" y="91.9393" width="314.117" height="66.09" rx="6.14733" transform="rotate(15 33.3781 91.9393)" stroke="#131112" stroke-width="2.51368"/>
</g>
<g filter="url(#filter1_d_1019_298)">
<g clip-path="url(#clip0_1019_298)">
<rect x="41.6819" y="89.463" width="311.601" height="63.5763" rx="4.89049" transform="rotate(15 41.6819 89.463)" fill="#97C8E5"/>
<path d="M53.2521 137.844C53.2725 136.629 53.3451 135.505 53.4696 134.471C53.6018 133.409 53.792 132.301 54.04 131.147C54.1869 130.485 54.3356 129.931 54.486 129.483C54.6441 129.007 54.7282 128.465 54.7384 127.858C54.7405 127.737 54.6922 127.632 54.5937 127.545C54.5235 127.465 54.443 127.367 54.3521 127.251C54.2896 127.143 54.2309 127.021 54.176 126.884C54.1288 126.719 54.1433 126.494 54.2195 126.209C54.2805 125.982 54.3766 125.794 54.5077 125.646C54.6672 125.506 54.8088 125.376 54.9322 125.257C55.0918 125.117 55.2371 124.973 55.3682 124.825C55.5354 124.656 55.6533 124.444 55.7219 124.188L55.8935 123.547C55.9697 123.263 56.0709 122.771 56.197 122.073C56.323 121.375 56.4605 120.634 56.6095 119.851C56.7584 119.067 56.8959 118.327 57.022 117.628C57.1765 116.938 57.2739 116.461 57.314 116.197C57.4152 115.706 57.4015 115.245 57.273 114.814C57.1445 114.383 57.145 113.926 57.2746 113.442C57.5186 112.531 57.8751 111.941 58.3441 111.67C58.8131 111.399 59.5171 111.39 60.4561 111.641C60.6552 111.695 60.7889 111.822 60.8569 112.023C60.9535 112.232 61.0871 112.359 61.2578 112.405L61.4285 112.451C61.5215 112.445 61.6572 112.451 61.8355 112.468C62.0215 112.457 62.1429 112.459 62.1998 112.474C64.8644 112.09 66.9416 111.793 68.4314 111.582C69.9212 111.372 71.0418 111.23 71.7933 111.157C72.5448 111.084 73.0382 111.063 73.2734 111.096C73.5371 111.136 73.7429 111.222 73.8908 111.353C74.217 111.501 74.4141 111.676 74.4822 111.877C74.5863 112.058 74.5964 112.304 74.5126 112.617C74.4363 112.902 74.3174 113.175 74.1558 113.436C73.9942 113.698 73.7379 113.858 73.3867 113.917L67.0752 115.107L66.8587 115.232L61.6264 115.98C61.4404 115.991 61.3027 116.107 61.2133 116.327C61.1238 116.547 61.06 116.728 61.0219 116.87C60.9609 117.098 60.8788 117.518 60.7756 118.131C60.6724 118.744 60.5616 119.385 60.4431 120.055C60.3323 120.696 60.2367 121.28 60.1564 121.808C60.1122 122.314 60.1043 122.571 60.1327 122.579L60.1754 122.59C60.1754 122.59 60.1934 122.58 60.2295 122.559C60.6035 122.415 61.2044 122.165 62.0321 121.807C62.8675 121.421 63.7171 121.039 64.5809 120.66C65.4447 120.282 66.2041 119.952 66.8591 119.67C67.5217 119.359 67.8672 119.208 67.8957 119.215C68.2086 119.299 68.4513 119.532 68.6235 119.914C68.7957 120.295 68.836 120.657 68.7446 120.998C68.6531 121.34 68.479 121.705 68.2224 122.093C67.9658 122.482 67.6504 122.748 67.2765 122.892L59.0287 127.041C59.0287 127.041 59.0097 127.112 58.9715 127.254C58.9334 127.396 58.8773 127.549 58.8031 127.712C58.7573 127.883 58.7078 128.068 58.6544 128.267C58.6087 128.438 58.5705 128.58 58.54 128.694C58.2656 129.718 58.0622 130.761 57.93 131.824C57.8055 132.858 57.6059 133.887 57.3315 134.911L57.5022 134.957C57.5306 134.965 57.6892 134.885 57.9778 134.719C58.2664 134.552 58.4867 134.413 58.6386 134.301C58.7184 134.231 58.896 134.08 59.1714 133.849C59.4753 133.625 59.971 133.255 60.6585 132.738C61.346 132.221 62.2614 131.536 63.4048 130.683C64.5481 129.831 66.0095 128.759 67.789 127.467C67.9333 127.383 68.1356 127.255 68.3957 127.08C68.6843 126.914 68.8571 126.838 68.914 126.853C69.0223 126.791 69.2006 126.808 69.4491 126.905C69.7336 126.981 69.9251 127.063 70.0237 127.151C70.1507 127.246 70.2937 127.452 70.4527 127.769C70.6118 128.086 70.6608 128.358 70.5998 128.586C70.5083 128.927 70.2014 129.333 69.679 129.803C69.1927 130.252 68.6276 130.71 67.9838 131.178C67.34 131.646 66.7 132.1 66.0638 132.539C65.4352 132.95 64.9472 133.292 64.5996 133.565C64.0335 134.084 63.344 134.723 62.5309 135.481C61.7539 136.218 60.9277 136.912 60.0522 137.562C59.1843 138.183 58.2719 138.686 57.3151 139.07C56.3944 139.433 55.493 139.496 54.6109 139.26C54.1841 139.146 53.8902 138.991 53.7292 138.795C53.5966 138.607 53.4375 138.29 53.2521 137.844ZM79.0316 144.202C78.7858 143.527 78.654 142.653 78.6363 141.581C78.6547 140.488 78.6845 139.352 78.7258 138.174C78.8031 136.975 78.8832 135.822 78.9661 134.716C79.0567 133.581 79.072 132.67 79.0121 131.983C78.9883 131.276 78.8598 130.845 78.6266 130.691C78.3933 130.537 77.9917 130.841 77.4215 131.603L70.6434 142.046C70.3944 142.407 70.1475 142.645 69.9026 142.763C69.6653 142.852 69.319 142.835 68.8637 142.713C68.6361 142.652 68.4019 142.559 68.161 142.433C67.9278 142.279 67.7165 142.101 67.527 141.897C67.3375 141.694 67.184 141.47 67.0667 141.225C66.9778 140.988 66.9534 140.737 66.9936 140.474C67.1704 140.155 67.4093 139.548 67.7102 138.653C68.0395 137.765 68.3785 136.728 68.7272 135.54C69.0758 134.353 69.4255 133.105 69.7762 131.796C70.163 130.466 70.4946 129.228 70.7712 128.083C71.0837 126.916 71.3364 125.916 71.529 125.084C71.7293 124.222 71.8495 123.66 71.8897 123.396C71.9659 123.112 72.0421 122.827 72.1184 122.543C72.2307 122.237 72.3496 121.964 72.4751 121.723C72.6291 121.49 72.8105 121.325 73.0194 121.229C73.2643 121.111 73.5859 121.106 73.9843 121.213C74.5249 121.358 74.9618 121.719 75.2951 122.296C75.6568 122.881 75.7691 123.429 75.6318 123.942C75.4336 124.681 75.1927 125.41 74.9091 126.127C74.6616 126.823 74.4387 127.541 74.2405 128.28C74.1185 128.736 74.0156 129.12 73.9317 129.433C73.8479 129.746 73.8019 130.145 73.7937 130.631C73.94 130.426 74.189 130.066 74.5407 129.55C74.8923 129.035 75.2659 128.494 75.6612 127.929C76.085 127.372 76.4689 126.85 76.813 126.362C77.1646 125.847 77.4136 125.486 77.56 125.282C77.9116 124.766 78.3553 124.305 78.8909 123.9C79.4341 123.466 80.0405 123.308 80.7102 123.427C81.1446 123.513 81.4982 123.729 81.7711 124.077C82.0723 124.432 82.2938 124.857 82.4356 125.353C82.5849 125.82 82.6839 126.304 82.7327 126.805C82.789 127.277 82.818 127.682 82.8195 128.017L82.2766 139.262L82.7654 144.608C82.7863 144.644 82.7776 144.733 82.7395 144.876C82.709 144.99 82.6861 145.075 82.6709 145.132C82.5794 145.473 82.4025 145.792 82.1403 146.088C81.9142 146.362 81.602 146.446 81.2036 146.34C80.7199 146.21 80.2563 145.949 79.8127 145.555C79.3768 145.134 79.1164 144.683 79.0316 144.202ZM88.0374 141.629L86.3961 128.976C86.3752 128.94 86.3686 128.907 86.3763 128.879L86.422 128.708C86.4906 128.452 86.6189 128.258 86.8069 128.125C87.031 127.972 87.2759 127.854 87.5417 127.773C87.5986 127.788 87.7124 127.819 87.8831 127.865C88.0615 127.882 88.1791 127.898 88.236 127.913C88.7766 128.058 89.1379 128.247 89.3198 128.478C89.5301 128.718 89.7963 129.033 90.1184 129.424C90.1179 129.882 90.142 130.361 90.1907 130.862C90.2679 131.37 90.3392 132.015 90.4047 132.795C90.5063 133.554 90.6294 134.517 90.7741 135.684C90.9188 136.851 91.1011 138.333 91.321 140.13L91.4772 140.401C91.6007 140.282 91.7214 140.116 91.8393 139.903C91.9856 139.699 92.2204 139.335 92.5436 138.811C92.8953 138.296 93.3867 137.543 94.0178 136.553C94.649 135.563 95.5253 134.228 96.6469 132.546C96.9736 132.237 97.2445 131.852 97.4594 131.391C97.6744 130.93 97.896 130.502 98.1241 130.106C98.3523 129.709 98.6183 129.399 98.9222 129.176C99.2545 128.96 99.6768 128.921 100.189 129.058C100.673 129.187 101.089 129.512 101.437 130.033C101.793 130.525 101.899 131.041 101.754 131.581C101.686 131.838 101.524 132.099 101.269 132.366C101.022 132.605 100.787 132.801 100.563 132.955L90.7128 148.888L90.4567 148.819C90.3429 148.789 90.176 148.729 89.956 148.639C89.7644 148.557 89.5624 148.457 89.3501 148.34C89.1453 148.193 88.969 148.055 88.8212 147.923C88.6733 147.792 88.6004 147.666 88.6025 147.545L87.9917 141.8L88.0374 141.629ZM98.7786 149.311C99.2564 146.389 99.6664 143.891 100.009 141.818C100.351 139.744 100.634 138.006 100.857 136.602C101.081 135.198 101.243 134.082 101.342 133.255C101.478 132.407 101.571 131.776 101.621 131.363C101.678 130.921 101.712 130.625 101.721 130.475C101.731 130.325 101.74 130.236 101.747 130.207L101.793 130.037C101.877 129.724 102.074 129.502 102.383 129.371C102.729 129.22 103.044 129.182 103.328 129.258C103.755 129.373 104.191 129.566 104.637 129.838C105.111 130.117 105.372 130.508 105.421 131.009C105.303 132.471 105.097 133.926 104.801 135.371C104.533 136.824 104.238 138.27 103.913 139.708C103.625 141.125 103.347 142.56 103.08 144.013C102.841 145.474 102.705 146.947 102.673 148.433C102.658 148.49 102.642 148.607 102.624 148.786C102.636 148.972 102.629 149.168 102.604 149.375C102.607 149.589 102.601 149.786 102.583 149.964C102.566 150.142 102.55 150.26 102.534 150.317L102.512 150.402C102.504 150.431 102.511 150.463 102.531 150.499C102.44 150.841 102.192 151.14 101.787 151.398C101.383 151.655 101.018 151.71 100.691 151.561C100.614 151.51 100.412 151.41 100.086 151.262C99.7954 151.093 99.6011 150.964 99.5025 150.877C99.4248 150.826 99.3262 150.738 99.2068 150.615C99.095 150.463 98.9832 150.311 98.8715 150.159C98.7882 150.015 98.7229 149.86 98.6756 149.695C98.6284 149.53 98.6627 149.402 98.7786 149.311ZM104.725 117.556C104.779 117.357 104.981 117.228 105.332 117.17C105.719 117.091 105.998 117.074 106.169 117.12C106.596 117.234 107.031 117.488 107.475 117.881C107.954 118.254 108.129 118.682 108 119.166C107.87 119.649 107.711 119.957 107.523 120.09C107.364 120.23 107.042 120.236 106.558 120.106C106.046 119.969 105.565 119.657 105.116 119.171C104.696 118.692 104.565 118.154 104.725 117.556ZM103.949 150.467C104.166 149.428 104.433 148.035 104.748 146.29C105.099 144.524 105.437 142.693 105.762 140.798C106.115 138.91 106.428 137.118 106.699 135.422C106.971 133.726 107.172 132.408 107.302 131.467C107.401 131.097 107.636 130.901 108.008 130.878C108.38 130.856 108.723 130.887 109.036 130.971C109.434 131.078 109.816 131.302 110.182 131.644C110.576 131.994 110.777 132.383 110.784 132.812C110.753 132.925 110.71 133.143 110.655 133.463C110.607 133.755 110.541 134.058 110.458 134.371C110.402 134.692 110.347 135.012 110.291 135.333C110.244 135.625 110.204 135.828 110.174 135.942C110.128 136.112 110.094 136.24 110.071 136.326C110.048 136.411 110.025 136.497 110.002 136.582C109.987 136.639 109.982 136.714 109.988 136.807C109.993 136.9 109.998 137.053 110.002 137.268C110.074 137.226 110.15 137.17 110.229 137.1C110.338 137.038 110.41 136.996 110.446 136.975C111.077 136.443 111.67 135.992 112.226 135.623C112.79 135.225 113.357 134.873 113.927 134.569C114.504 134.235 115.128 133.899 115.798 133.56C116.504 133.201 117.315 132.793 118.23 132.337C118.439 132.24 118.594 132.175 118.694 132.141C118.803 132.078 118.889 132.04 118.954 132.027C119.054 131.993 119.147 131.988 119.233 132.011C119.326 132.005 119.443 132.021 119.585 132.059C120.069 132.189 120.507 132.489 120.899 132.96C121.328 133.411 121.466 133.92 121.313 134.489C121.26 134.688 121.131 134.883 120.928 135.072C120.733 135.233 120.508 135.387 120.256 135.533C120.011 135.65 119.756 135.749 119.49 135.83C119.253 135.919 119.041 135.969 118.855 135.981C117.94 136.437 116.955 136.981 115.901 137.614C114.855 138.218 113.847 138.908 112.876 139.685C111.906 140.462 111.052 141.316 110.314 142.246C109.577 143.177 109.067 144.169 108.785 145.222C108.526 146.189 108.342 147.161 108.232 148.138C108.123 149.116 107.939 150.088 107.68 151.055L107.279 152.549C106.991 152.716 106.742 152.847 106.533 152.944C106.324 153.04 106.063 153.047 105.75 152.963C105.267 152.833 104.851 152.508 104.502 151.988C104.161 151.439 103.977 150.932 103.949 150.467ZM116.466 148.789L120.984 138.244C121.14 137.889 121.369 137.661 121.671 137.559C122.001 137.464 122.337 137.463 122.678 137.554C123.304 137.722 123.753 138.04 124.024 138.509C124.302 138.95 124.501 139.46 124.619 140.041L124.662 140.053C125.004 140.144 125.318 140.167 125.604 140.122C125.927 140.056 126.287 140.076 126.686 140.183C127.596 140.427 128.288 140.917 128.762 141.654C129.264 142.399 129.603 143.237 129.781 144.169C129.965 145.072 130.017 146.016 129.937 147.001C129.884 147.993 129.763 148.845 129.572 149.556C129.343 150.41 128.86 151.302 128.123 152.233C127.414 153.171 126.564 154.011 125.572 154.752C124.61 155.5 123.589 156.065 122.511 156.447C121.432 156.829 120.424 156.895 119.485 156.643C118.631 156.414 117.945 156.017 117.426 155.451C116.935 154.892 116.57 154.261 116.332 153.557C116.13 152.832 116.046 152.062 116.082 151.248C116.117 150.434 116.233 149.657 116.432 148.917L116.466 148.789ZM119.982 150.006C119.963 150.306 119.932 150.648 119.89 151.033C119.848 151.419 119.842 151.783 119.872 152.126C119.909 152.441 120.005 152.711 120.158 152.935C120.348 153.138 120.661 153.222 121.097 153.187C121.559 152.944 122.06 152.667 122.601 152.354C123.142 152.042 123.662 151.694 124.162 151.309C124.69 150.932 125.154 150.507 125.555 150.035C125.956 149.563 126.237 149.029 126.397 148.431C126.77 147.494 126.935 146.593 126.893 145.728C126.858 144.834 126.644 144.152 126.252 143.681C125.896 143.189 125.381 143.005 124.707 143.129C124.041 143.225 123.249 143.791 122.331 144.826C121.791 145.474 121.317 146.277 120.908 147.235C120.535 148.172 120.238 149.053 120.017 149.878L119.982 150.006ZM139.381 160.373C139.136 159.697 139.004 158.823 138.986 157.751C139.005 156.658 139.034 155.523 139.076 154.344C139.153 153.145 139.233 151.993 139.316 150.886C139.407 149.752 139.422 148.841 139.362 148.154C139.338 147.446 139.21 147.015 138.976 146.861C138.743 146.707 138.342 147.012 137.771 147.774L130.993 158.217C130.744 158.577 130.497 158.816 130.252 158.933C130.015 159.022 129.669 159.006 129.214 158.884C128.986 158.823 128.752 158.73 128.511 158.604C128.278 158.45 128.066 158.271 127.877 158.068C127.687 157.865 127.534 157.641 127.417 157.396C127.328 157.159 127.303 156.908 127.343 156.644C127.52 156.326 127.759 155.719 128.06 154.824C128.389 153.936 128.728 152.898 129.077 151.711C129.426 150.524 129.775 149.275 130.126 147.967C130.513 146.637 130.844 145.399 131.121 144.253C131.434 143.087 131.686 142.087 131.879 141.254C132.079 140.393 132.199 139.831 132.239 139.567C132.316 139.282 132.392 138.998 132.468 138.713C132.581 138.408 132.699 138.135 132.825 137.894C132.979 137.661 133.16 137.496 133.369 137.399C133.614 137.282 133.936 137.277 134.334 137.384C134.875 137.528 135.312 137.889 135.645 138.467C136.007 139.052 136.119 139.6 135.982 140.112C135.783 140.852 135.543 141.58 135.259 142.297C135.011 142.993 134.789 143.711 134.59 144.451C134.468 144.906 134.365 145.29 134.282 145.603C134.198 145.916 134.152 146.316 134.144 146.802C134.29 146.597 134.539 146.237 134.891 145.721C135.242 145.205 135.616 144.665 136.011 144.1C136.435 143.543 136.819 143.02 137.163 142.533C137.514 142.017 137.763 141.657 137.91 141.452C138.261 140.937 138.705 140.476 139.241 140.071C139.784 139.637 140.39 139.479 141.06 139.597C141.494 139.683 141.848 139.9 142.121 140.248C142.422 140.603 142.644 141.028 142.785 141.524C142.935 141.991 143.034 142.475 143.083 142.976C143.139 143.448 143.168 143.852 143.169 144.188L142.626 155.433L143.115 160.779C143.136 160.815 143.127 160.904 143.089 161.046C143.059 161.16 143.036 161.246 143.021 161.303C142.929 161.644 142.752 161.963 142.49 162.258C142.264 162.533 141.952 162.617 141.553 162.51C141.07 162.381 140.606 162.119 140.163 161.726C139.727 161.304 139.466 160.853 139.381 160.373ZM146.682 148.972C146.823 148.217 146.95 147.458 147.063 146.695C147.212 145.912 147.314 145.131 147.37 144.353C147.538 143.727 147.844 143.382 148.288 143.318C148.76 143.262 149.239 143.298 149.722 143.428L150.576 143.657C150.949 143.97 151.183 144.292 151.278 144.623C151.372 144.953 151.402 145.296 151.368 145.653C151.333 146.01 151.252 146.369 151.124 146.731C151.025 147.101 150.944 147.461 150.881 147.81C150.872 147.96 150.821 148.205 150.729 148.547C150.638 148.888 150.543 149.244 150.444 149.614C150.373 149.991 150.31 150.34 150.254 150.661C150.227 150.989 150.245 151.208 150.308 151.316L155.951 145.28C156.205 145.013 156.516 144.821 156.882 144.706C157.284 144.57 157.677 144.584 158.06 144.747C158.671 144.972 159.106 145.226 159.366 145.509C159.633 145.763 159.782 146.062 159.812 146.406C159.878 146.729 159.853 147.103 159.739 147.53C159.653 147.965 159.556 148.442 159.447 148.961C159.401 149.132 159.328 149.463 159.227 149.955C159.133 150.417 159.032 150.909 158.923 151.429C158.843 151.956 158.756 152.451 158.662 152.914C158.597 153.384 158.556 153.709 158.539 153.887L158.71 153.933C158.82 153.749 159.022 153.392 159.317 152.861C159.64 152.337 159.985 151.789 160.352 151.217C160.719 150.644 161.064 150.096 161.387 149.573C161.711 149.05 161.945 148.686 162.092 148.481C162.135 148.431 162.223 148.333 162.354 148.185C162.493 148.009 162.631 147.832 162.77 147.656C162.917 147.451 163.055 147.275 163.186 147.127C163.325 146.951 163.42 146.824 163.471 146.746C163.754 146.487 163.996 146.383 164.195 146.437C164.43 146.469 164.676 146.52 164.932 146.589C165.643 146.779 166.134 147.109 166.405 147.578C166.712 148.026 166.878 148.543 166.904 149.13C166.958 149.724 166.941 150.359 166.851 151.037C166.768 151.686 166.711 152.296 166.68 152.867C166.709 152.874 166.715 152.907 166.7 152.963C166.693 152.992 166.671 153.017 166.635 153.037L165.654 166.086C165.737 166.231 165.768 166.345 165.745 166.431C165.75 166.524 165.734 166.641 165.696 166.784C165.612 167.097 165.372 167.368 164.975 167.597C164.614 167.805 164.277 167.867 163.964 167.783C163.537 167.669 163.081 167.379 162.596 166.914C162.14 166.456 161.933 165.974 161.978 165.467L162.725 154.826L162.603 154.427C162.508 154.554 162.269 154.932 161.887 155.562C161.541 156.171 161.103 156.953 160.572 157.909C160.049 158.836 159.449 159.88 158.772 161.04C158.124 162.208 157.454 163.401 156.761 164.618C156.636 164.859 156.412 165.013 156.089 165.079C155.803 165.124 155.56 165.12 155.36 165.066C154.763 164.906 154.298 164.706 153.967 164.464C153.635 164.223 153.407 163.933 153.284 163.595C153.162 163.257 153.111 162.878 153.132 162.457C153.153 162.035 153.204 161.561 153.285 161.034C153.315 160.92 153.393 160.514 153.52 159.816C153.653 159.089 153.796 158.273 153.947 157.368C154.134 156.443 154.306 155.513 154.465 154.58C154.624 153.646 154.761 152.906 154.878 152.357C154.908 152.243 154.931 152.158 154.946 152.101C154.961 152.044 154.973 152.002 154.98 151.973C154.996 151.916 154.997 151.856 154.984 151.791C154.978 151.698 154.955 151.555 154.916 151.361L152.889 153.974L148.993 160.661L147.857 163.193C147.783 163.356 147.656 163.49 147.475 163.594C147.331 163.677 147.162 163.739 146.968 163.778C146.782 163.79 146.6 163.786 146.422 163.769C146.244 163.752 146.097 163.728 145.984 163.698C145.358 163.53 144.878 163.157 144.545 162.58C144.24 162.01 144.146 161.452 144.262 160.903C144.287 160.696 144.362 160.305 144.486 159.728C144.617 159.123 144.761 158.414 144.918 157.602C145.074 156.79 145.242 155.936 145.422 155.039C145.63 154.149 145.812 153.298 145.969 152.486C146.125 151.674 146.255 150.962 146.358 150.349C146.49 149.744 146.582 149.342 146.636 149.143L146.682 148.972ZM186.013 161.432C185.819 161.929 185.641 162.308 185.48 162.57C185.347 162.839 185.164 163.065 184.932 163.247C184.701 163.428 184.394 163.606 184.012 163.778C183.638 163.922 183.12 164.149 182.458 164.459C181.803 164.741 180.981 165.131 179.994 165.629C179.007 166.127 177.792 166.792 176.349 167.625C175.779 167.93 175.191 168.245 174.586 168.571C173.98 168.897 173.357 169.172 172.717 169.397C172.114 169.601 171.497 169.741 170.867 169.816C170.237 169.891 169.609 169.845 168.983 169.677C167.759 169.349 166.974 168.697 166.626 167.719C166.278 166.741 166.249 165.712 166.538 164.631C166.729 163.919 166.903 163.326 167.061 162.85C167.248 162.381 167.529 161.786 167.906 161.063C167.669 160.695 167.464 160.38 167.289 160.12C167.123 159.832 167.089 159.502 167.188 159.132C167.28 158.791 167.412 158.582 167.584 158.507C167.786 158.439 167.99 158.417 168.196 158.442C168.439 158.446 168.668 158.446 168.882 158.443C169.097 158.439 169.27 158.364 169.401 158.216C169.503 158.06 169.687 157.774 169.951 157.357C170.244 156.947 170.54 156.524 170.841 156.086C171.149 155.619 171.431 155.192 171.688 154.803C171.98 154.393 172.178 154.111 172.281 153.955C172.609 153.525 172.952 153.099 173.31 152.676C173.703 152.232 174.109 151.853 174.529 151.539C174.977 151.232 175.449 151.008 175.945 150.866C176.468 150.732 177.029 150.745 177.627 150.905C177.968 150.996 178.339 151.264 178.739 151.706C179.167 152.156 179.548 152.67 179.881 153.247C180.222 153.796 180.484 154.354 180.667 154.922C180.851 155.489 180.897 155.944 180.805 156.285C180.691 156.712 180.484 157.084 180.186 157.4C179.896 157.688 179.552 157.947 179.155 158.176C178.794 158.384 178.409 158.571 177.999 158.736C177.589 158.9 177.211 159.058 176.865 159.209C176.837 159.202 176.772 159.215 176.672 159.249C176.571 159.283 176.489 159.307 176.424 159.32C176.388 159.341 176.298 159.393 176.153 159.476C176.045 159.539 175.919 159.612 175.775 159.695C175.63 159.778 175.486 159.862 175.342 159.945C175.226 160.036 175.15 160.092 175.114 160.113C175.006 160.175 174.797 160.272 174.487 160.402C174.214 160.512 173.904 160.642 173.559 160.794C173.221 160.917 172.897 161.043 172.588 161.174C172.314 161.284 172.127 161.356 172.027 161.39L171.765 161.685C171.677 161.784 171.552 162.025 171.388 162.408C171.261 162.77 171.103 163.185 170.917 163.654C170.73 164.122 170.54 164.605 170.346 165.102C170.188 165.578 170.067 165.973 169.983 166.286C169.975 166.314 169.982 166.346 170.003 166.382C170.045 166.455 170.08 166.494 170.108 166.502C170.336 166.563 170.576 166.521 170.828 166.375C171.081 166.229 171.332 166.144 171.583 166.12L180.104 161.633L182.575 159.413C182.77 159.252 183.098 159.111 183.557 158.99C184.053 158.848 184.514 158.834 184.94 158.949C185.375 159.035 185.71 159.262 185.947 159.63C186.212 160.006 186.234 160.607 186.013 161.432ZM177.516 155.587C177.688 155.511 177.791 155.356 177.824 155.121C177.856 154.885 177.824 154.663 177.728 154.454C177.66 154.253 177.53 154.112 177.338 154.03C177.154 153.92 176.943 153.97 176.703 154.18C176.588 154.271 176.37 154.457 176.051 154.737C175.76 155.025 175.452 155.324 175.125 155.632C174.834 155.921 174.583 156.174 174.372 156.392C174.162 156.61 174.106 156.701 174.207 156.667L177.516 155.587ZM194.285 175.085C194.039 174.409 193.908 173.535 193.89 172.463C193.908 171.37 193.938 170.234 193.979 169.056C194.057 167.857 194.137 166.704 194.22 165.598C194.31 164.463 194.326 163.553 194.266 162.866C194.242 162.158 194.113 161.727 193.88 161.573C193.647 161.419 193.245 161.723 192.675 162.485L185.897 172.928C185.648 173.289 185.401 173.527 185.156 173.645C184.919 173.734 184.573 173.717 184.117 173.595C183.89 173.534 183.656 173.441 183.415 173.315C183.182 173.161 182.97 172.983 182.781 172.78C182.591 172.576 182.438 172.352 182.32 172.107C182.231 171.87 182.207 171.62 182.247 171.356C182.424 171.037 182.663 170.43 182.964 169.535C183.293 168.647 183.632 167.61 183.981 166.422C184.329 165.235 184.679 163.987 185.03 162.678C185.417 161.348 185.748 160.111 186.025 158.965C186.337 157.798 186.59 156.799 186.783 155.966C186.983 155.105 187.103 154.542 187.143 154.278C187.22 153.994 187.296 153.709 187.372 153.425C187.484 153.119 187.603 152.846 187.729 152.606C187.883 152.372 188.064 152.207 188.273 152.111C188.518 151.994 188.84 151.988 189.238 152.095C189.779 152.24 190.216 152.601 190.549 153.178C190.91 153.763 191.023 154.312 190.886 154.824C190.687 155.563 190.446 156.292 190.163 157.009C189.915 157.705 189.692 158.423 189.494 159.163C189.372 159.618 189.269 160.002 189.185 160.315C189.102 160.628 189.056 161.027 189.047 161.513C189.194 161.308 189.443 160.948 189.794 160.432C190.146 159.917 190.52 159.376 190.915 158.811C191.339 158.254 191.723 157.732 192.067 157.244C192.418 156.729 192.667 156.368 192.814 156.164C193.165 155.648 193.609 155.187 194.145 154.782C194.688 154.348 195.294 154.19 195.964 154.309C196.398 154.395 196.752 154.612 197.025 154.959C197.326 155.314 197.548 155.74 197.689 156.235C197.839 156.702 197.938 157.186 197.986 157.687C198.043 158.16 198.072 158.564 198.073 158.9L197.53 170.145L198.019 175.49C198.04 175.526 198.031 175.616 197.993 175.758C197.963 175.872 197.94 175.957 197.925 176.014C197.833 176.355 197.656 176.674 197.394 176.97C197.168 177.245 196.856 177.329 196.457 177.222C195.974 177.092 195.51 176.831 195.066 176.437C194.63 176.016 194.37 175.565 194.285 175.085ZM204.654 166.061C204.255 165.954 203.873 165.958 203.507 166.074C203.14 166.189 202.744 166.189 202.317 166.075C202.26 166.06 202.103 166.018 201.847 165.949C201.627 165.86 201.489 165.807 201.432 165.792C201.356 165.619 201.259 165.471 201.139 165.348C201.02 165.224 200.901 165.101 200.781 164.977C200.669 164.825 200.576 164.663 200.5 164.49C200.453 164.325 200.463 164.115 200.532 163.858C200.646 163.432 200.909 163.136 201.319 162.971C201.736 162.778 202.2 162.643 202.708 162.566C203.217 162.489 203.722 162.426 204.223 162.377C204.752 162.336 205.19 162.24 205.535 162.088L206.038 160.21C206.602 158.105 207.067 155.973 207.432 153.814C207.805 151.626 208.269 149.494 208.826 147.417C208.978 146.848 209.22 146.516 209.55 146.422C209.88 146.327 210.287 146.345 210.771 146.474C211.34 146.627 211.707 146.908 211.871 147.318C212.072 147.707 212.165 148.159 212.149 148.673C212.141 149.159 212.064 149.672 211.919 150.213C211.782 150.725 211.678 151.17 211.607 151.547C211.508 151.917 211.361 152.579 211.167 153.534C210.972 154.488 210.762 155.499 210.537 156.567C210.312 157.635 210.102 158.646 209.907 159.6C209.712 160.554 209.58 161.22 209.509 161.598C209.63 161.6 209.863 161.586 210.206 161.556C210.586 161.505 210.976 161.472 211.376 161.458C211.784 161.415 212.16 161.378 212.504 161.348C212.876 161.326 213.14 161.305 213.298 161.286C214.121 161.172 214.981 161.036 215.877 160.88C216.78 160.695 217.645 160.713 218.47 160.934C219.039 161.087 219.412 161.4 219.59 161.875C219.804 162.328 219.842 162.811 219.705 163.324C219.606 163.693 219.391 163.926 219.061 164.02C218.731 164.115 218.39 164.191 218.039 164.249L209.493 165.07C209.393 165.104 209.292 165.138 209.192 165.172C209.099 165.178 208.998 165.212 208.89 165.274L208.524 166.64C208.257 167.636 207.993 168.678 207.732 169.767C207.507 170.835 207.332 171.886 207.207 172.92C207.121 173.812 207.052 174.693 207.002 175.564C206.951 176.435 206.812 177.297 206.583 178.151C206.515 178.407 206.338 178.726 206.053 179.107C205.768 179.488 205.44 179.629 205.07 179.53C204.302 179.324 203.737 178.928 203.375 178.344C203.013 177.759 202.907 177.075 203.056 176.291C203.31 174.773 203.588 173.11 203.89 171.3C204.221 169.498 204.532 167.766 204.824 166.106L204.654 166.061ZM226.989 172.64C226.611 173.027 226.163 173.502 225.647 174.064C225.166 174.607 224.642 175.198 224.073 175.839C223.513 176.451 222.906 177.066 222.252 177.684C221.635 178.281 221.004 178.813 220.361 179.281C219.745 179.757 219.124 180.139 218.498 180.429C217.879 180.69 217.288 180.791 216.724 180.731C216.497 180.67 216.244 180.587 215.967 180.483C215.698 180.349 215.433 180.202 215.171 180.04C214.917 179.85 214.713 179.643 214.56 179.419C214.442 179.174 214.426 178.895 214.51 178.582C215.316 175.688 216.234 173.113 217.265 170.858C218.304 168.575 219.491 166.651 220.824 165.087C222.166 163.495 223.666 162.28 225.323 161.444C226.981 160.607 228.831 160.188 230.875 160.187C230.932 160.202 231.031 160.229 231.174 160.267C231.352 160.284 231.469 160.3 231.526 160.316C232.388 160.516 232.893 161.078 233.041 162.002C233.226 162.906 233.168 164.262 232.866 166.072C232.6 167.861 232.126 170.143 231.443 172.919C230.796 175.673 230.072 179.001 229.271 182.904C229.272 183.239 229.242 183.521 229.181 183.749C229.149 183.984 229.091 184.258 229.007 184.571C228.893 184.998 228.677 185.291 228.36 185.45C228.05 185.58 227.696 185.592 227.298 185.486C226.473 185.265 225.951 184.881 225.731 184.334C225.512 183.787 225.448 183.114 225.54 182.316C225.548 182.287 225.58 182.052 225.638 181.61C225.724 181.175 225.796 180.676 225.856 180.113C225.951 179.529 226.047 178.944 226.142 178.36C226.238 177.776 226.321 177.295 226.392 176.917L226.438 176.747C226.457 176.447 226.509 176.08 226.595 175.645C226.71 175.218 226.792 174.798 226.842 174.385C226.914 173.886 227.001 173.391 227.102 172.899L226.989 172.64ZM228.314 163.938C227.394 164.301 226.434 164.867 225.435 165.636C224.436 166.406 223.658 167.204 223.101 168.03C222.844 168.419 222.531 168.96 222.162 169.654C221.793 170.348 221.439 171.046 221.098 171.748C220.794 172.429 220.515 173.071 220.262 173.674C220.017 174.248 219.871 174.621 219.825 174.792C219.854 174.799 219.89 174.779 219.933 174.729C220.006 174.688 220.06 174.656 220.096 174.636C222.317 173.401 224.047 171.897 225.284 170.125C226.558 168.331 227.568 166.269 228.314 163.938ZM229.84 182.965C230.16 181.77 230.501 180.611 230.863 179.488C231.225 178.365 231.566 177.206 231.886 176.011C232.67 172.744 233.492 169.564 234.351 166.47C235.218 163.348 235.934 160.109 236.497 156.753C236.642 156.212 236.866 155.891 237.167 155.789C237.477 155.658 237.888 155.662 238.4 155.799C239.054 155.974 239.556 156.322 239.904 156.842C240.289 157.342 240.404 157.937 240.249 158.627C239.11 162.652 238.078 166.676 237.152 170.697C236.263 174.698 235.274 178.733 234.184 182.802L233.303 186.088C233.071 186.27 232.768 186.433 232.394 186.577C232.02 186.72 231.685 186.722 231.387 186.581C230.6 186.218 230.09 185.731 229.857 185.119C229.632 184.48 229.626 183.761 229.84 182.965ZM250.106 184.598C251.21 181.844 252.067 179.726 252.678 178.243C253.289 176.76 253.736 175.66 254.02 174.943C254.363 174.12 254.553 173.637 254.591 173.495C255.083 172.681 255.609 171.8 256.168 170.852C256.727 169.904 257.352 169.05 258.044 168.29C258.764 167.538 259.574 166.962 260.474 166.562C261.374 166.163 262.407 166.12 263.574 166.432C264.086 166.57 264.53 166.734 264.905 166.926C265.317 167.098 265.685 167.318 266.009 167.588C266.333 167.858 266.631 168.167 266.904 168.514C267.213 168.841 267.521 169.228 267.828 169.676C268.044 170.009 268.158 170.207 268.171 170.272C268.213 170.344 268.196 170.522 268.12 170.807C268.02 171.177 267.797 171.498 267.45 171.771C267.102 172.044 266.686 172.115 266.203 171.986C265.804 171.879 265.5 171.706 265.29 171.467C265.087 171.199 264.888 170.917 264.693 170.621C264.534 170.303 264.335 170.021 264.096 169.774C263.894 169.507 263.579 169.316 263.152 169.201C262.697 169.079 262.264 169.101 261.854 169.265C261.452 169.401 261.073 169.62 260.718 169.921C260.391 170.23 260.095 170.593 259.831 171.01C259.595 171.435 259.396 171.839 259.232 172.222L253.566 185.342C253.551 185.399 253.499 185.538 253.409 185.758C253.356 185.957 253.314 186.113 253.284 186.227C253.23 186.426 253.162 186.682 253.078 186.995C253.001 187.28 252.95 187.586 252.923 187.915C252.904 188.214 252.934 188.497 253.016 188.763C253.105 189 253.291 189.157 253.576 189.233C253.747 189.279 253.918 189.264 254.091 189.188C255.701 188.644 257.15 187.903 258.437 186.968C259.761 186.011 261.047 184.968 262.295 183.839C262.338 183.789 262.444 183.68 262.611 183.512C262.814 183.322 263.003 183.129 263.178 182.932C263.389 182.714 263.582 182.506 263.757 182.309C263.939 182.083 264.074 181.921 264.161 181.823C264.431 181.499 264.662 181.149 264.854 180.773C265.046 180.398 265.245 180.055 265.45 179.744C265.684 179.44 265.956 179.223 266.265 179.093C266.582 178.934 267.011 178.927 267.552 179.072C267.95 179.178 268.289 179.452 268.567 179.893C268.845 180.333 268.924 180.781 268.802 181.236L268.779 181.322C267.518 183.18 266.087 184.824 264.484 186.255C262.909 187.693 261.21 189.083 259.387 190.424C258.258 191.22 257.056 191.782 255.778 192.111C254.501 192.439 253.179 192.421 251.814 192.055L251.6 191.997C250.449 191.171 249.772 190.227 249.568 189.166C249.401 188.084 249.489 186.903 249.832 185.622L250.106 184.598ZM277.702 186.228C277.324 186.615 276.876 187.09 276.359 187.653C275.879 188.195 275.354 188.786 274.786 189.427C274.226 190.039 273.619 190.654 272.965 191.272C272.348 191.869 271.717 192.402 271.073 192.869C270.458 193.345 269.837 193.728 269.21 194.017C268.591 194.278 268 194.379 267.437 194.32C267.209 194.259 266.957 194.176 266.68 194.071C266.411 193.938 266.145 193.79 265.884 193.629C265.63 193.439 265.426 193.232 265.272 193.008C265.155 192.763 265.138 192.484 265.222 192.171C266.028 189.276 266.947 186.701 267.978 184.446C269.017 182.163 270.203 180.24 271.537 178.676C272.879 177.083 274.378 175.869 276.036 175.032C277.693 174.195 279.544 173.776 281.587 173.775C281.644 173.79 281.744 173.817 281.886 173.855C282.065 173.872 282.182 173.889 282.239 173.904C283.1 174.104 283.605 174.666 283.754 175.591C283.939 176.494 283.88 177.851 283.578 179.661C283.313 181.45 282.838 183.732 282.156 186.507C281.509 189.261 280.785 192.59 279.983 196.492C279.985 196.828 279.955 197.11 279.894 197.337C279.862 197.572 279.803 197.847 279.72 198.16C279.605 198.586 279.389 198.879 279.072 199.038C278.763 199.169 278.409 199.181 278.011 199.074C277.186 198.853 276.663 198.469 276.444 197.922C276.224 197.376 276.161 196.703 276.253 195.904C276.26 195.876 276.293 195.64 276.35 195.198C276.436 194.764 276.509 194.265 276.568 193.701C276.664 193.117 276.76 192.533 276.855 191.948C276.951 191.364 277.034 190.883 277.104 190.506L277.15 190.335C277.17 190.035 277.222 189.668 277.308 189.234C277.422 188.807 277.504 188.387 277.554 187.973C277.627 187.474 277.714 186.979 277.815 186.488L277.702 186.228ZM279.027 177.526C278.106 177.889 277.146 178.456 276.147 179.225C275.148 179.994 274.37 180.792 273.813 181.619C273.557 182.007 273.244 182.549 272.875 183.243C272.506 183.937 272.151 184.635 271.811 185.336C271.506 186.017 271.228 186.659 270.975 187.262C270.729 187.837 270.584 188.21 270.538 188.38C270.566 188.388 270.602 188.367 270.646 188.318C270.718 188.276 270.772 188.245 270.808 188.224C273.03 186.989 274.759 185.486 275.997 183.713C277.27 181.92 278.28 179.857 279.027 177.526ZM281.823 198.129C282.041 197.089 282.307 195.696 282.622 193.951C282.973 192.185 283.311 190.354 283.636 188.459C283.99 186.572 284.302 184.78 284.573 183.084C284.845 181.388 285.046 180.069 285.176 179.128C285.275 178.758 285.51 178.562 285.882 178.54C286.254 178.517 286.597 178.548 286.91 178.632C287.308 178.739 287.69 178.963 288.056 179.305C288.45 179.655 288.651 180.044 288.658 180.473C288.628 180.587 288.585 180.804 288.529 181.124C288.481 181.417 288.416 181.719 288.332 182.032C288.276 182.353 288.221 182.673 288.165 182.994C288.118 183.286 288.079 183.489 288.048 183.603C288.002 183.774 287.968 183.902 287.945 183.987C287.922 184.072 287.899 184.158 287.876 184.243C287.861 184.3 287.856 184.375 287.862 184.468C287.868 184.561 287.872 184.715 287.876 184.929C287.948 184.887 288.024 184.832 288.104 184.761C288.212 184.699 288.284 184.657 288.32 184.636C288.951 184.104 289.544 183.653 290.101 183.284C290.665 182.886 291.231 182.535 291.801 182.23C292.378 181.897 293.002 181.561 293.672 181.222C294.379 180.862 295.189 180.454 296.104 179.998C296.313 179.901 296.468 179.836 296.569 179.802C296.677 179.74 296.763 179.702 296.828 179.688C296.928 179.654 297.021 179.649 297.107 179.672C297.2 179.666 297.317 179.682 297.46 179.721C297.943 179.85 298.381 180.15 298.773 180.622C299.202 181.072 299.34 181.581 299.187 182.15C299.134 182.35 299.006 182.544 298.802 182.733C298.607 182.895 298.383 183.048 298.13 183.194C297.885 183.311 297.63 183.41 297.364 183.492C297.127 183.581 296.915 183.631 296.729 183.642C295.814 184.098 294.829 184.642 293.776 185.275C292.729 185.879 291.721 186.569 290.75 187.346C289.78 188.123 288.926 188.977 288.188 189.908C287.451 190.838 286.941 191.83 286.659 192.883C286.4 193.85 286.216 194.823 286.107 195.8C285.997 196.777 285.813 197.749 285.554 198.716L285.153 200.21C284.865 200.377 284.616 200.508 284.407 200.605C284.198 200.702 283.937 200.708 283.624 200.624C283.141 200.494 282.725 200.169 282.376 199.649C282.035 199.1 281.851 198.593 281.823 198.129ZM313.55 195.605C313.356 196.102 313.178 196.482 313.017 196.743C312.884 197.013 312.701 197.238 312.469 197.42C312.238 197.602 311.931 197.779 311.55 197.951C311.176 198.095 310.657 198.322 309.995 198.632C309.34 198.914 308.519 199.304 307.531 199.802C306.544 200.3 305.329 200.966 303.886 201.799C303.316 202.104 302.728 202.419 302.123 202.744C301.517 203.07 300.894 203.345 300.255 203.57C299.651 203.775 299.034 203.914 298.404 203.989C297.774 204.065 297.146 204.018 296.52 203.851C295.296 203.523 294.511 202.87 294.163 201.892C293.815 200.915 293.786 199.885 294.075 198.804C294.266 198.093 294.44 197.499 294.598 197.023C294.785 196.554 295.066 195.959 295.443 195.237C295.206 194.868 295.001 194.554 294.826 194.294C294.66 194.005 294.626 193.676 294.725 193.306C294.817 192.964 294.949 192.756 295.122 192.68C295.323 192.612 295.527 192.591 295.734 192.615C295.976 192.62 296.205 192.62 296.419 192.616C296.634 192.613 296.807 192.537 296.938 192.389C297.04 192.234 297.224 191.947 297.488 191.53C297.781 191.121 298.077 190.697 298.378 190.259C298.686 189.793 298.968 189.365 299.225 188.976C299.517 188.567 299.715 188.284 299.818 188.129C300.146 187.699 300.489 187.272 300.847 186.849C301.24 186.406 301.646 186.027 302.066 185.712C302.514 185.405 302.986 185.181 303.482 185.039C304.005 184.905 304.566 184.918 305.164 185.078C305.505 185.17 305.876 185.437 306.276 185.88C306.704 186.33 307.085 186.844 307.418 187.421C307.759 187.97 308.021 188.528 308.204 189.095C308.388 189.663 308.434 190.117 308.342 190.459C308.228 190.886 308.022 191.257 307.723 191.574C307.433 191.862 307.089 192.121 306.692 192.35C306.331 192.558 305.946 192.744 305.536 192.909C305.126 193.074 304.748 193.232 304.402 193.383C304.374 193.375 304.309 193.389 304.209 193.423C304.108 193.457 304.026 193.48 303.961 193.493C303.925 193.514 303.835 193.566 303.69 193.65C303.582 193.712 303.456 193.785 303.312 193.868C303.167 193.952 303.023 194.035 302.879 194.118C302.763 194.209 302.687 194.265 302.651 194.286C302.543 194.348 302.334 194.445 302.024 194.576C301.751 194.685 301.441 194.816 301.096 194.967C300.758 195.09 300.434 195.217 300.125 195.347C299.852 195.457 299.665 195.529 299.564 195.563L299.302 195.859C299.214 195.957 299.089 196.198 298.925 196.581C298.798 196.944 298.641 197.359 298.454 197.827C298.267 198.296 298.077 198.779 297.883 199.275C297.725 199.752 297.604 200.146 297.52 200.459C297.513 200.487 297.519 200.52 297.54 200.556C297.582 200.628 297.617 200.668 297.645 200.676C297.873 200.737 298.113 200.694 298.365 200.548C298.618 200.402 298.869 200.317 299.12 200.293L307.641 195.806L310.112 193.586C310.307 193.425 310.635 193.284 311.094 193.163C311.59 193.022 312.051 193.008 312.477 193.122C312.912 193.208 313.247 193.435 313.484 193.804C313.749 194.18 313.771 194.78 313.55 195.605ZM305.053 189.76C305.226 189.685 305.328 189.529 305.361 189.294C305.393 189.059 305.361 188.837 305.265 188.628C305.197 188.427 305.067 188.285 304.875 188.203C304.691 188.093 304.48 188.143 304.24 188.353C304.125 188.444 303.907 188.63 303.588 188.91C303.297 189.199 302.989 189.497 302.662 189.806C302.371 190.094 302.12 190.347 301.91 190.565C301.699 190.783 301.644 190.875 301.744 190.841L305.053 189.76Z" fill="#131112"/>
</g>
<rect x="40.7932" y="87.9237" width="314.115" height="66.09" rx="6.14733" transform="rotate(15 40.7932 87.9237)" stroke="#131112" stroke-width="2.51368"/>
</g>
<g filter="url(#filter2_d_1019_298)">
<g filter="url(#filter3_d_1019_298)">
<circle cx="248.782" cy="110.015" r="7.7342" transform="rotate(-15 248.782 110.015)" fill="#F3F4F7"/>
<circle cx="248.782" cy="110.015" r="8.89434" transform="rotate(-15 248.782 110.015)" stroke="#131112" stroke-width="2.32026"/>
</g>
<g filter="url(#filter4_d_1019_298)">
<circle cx="280.13" cy="77.5944" r="15.4684" transform="rotate(-15 280.13 77.5944)" fill="#F3F4F7"/>
<circle cx="280.13" cy="77.5944" r="17.0153" transform="rotate(-15 280.13 77.5944)" stroke="#131112" stroke-width="3.09368"/>
</g>
<g filter="url(#filter5_d_1019_298)">
<circle cx="324.618" cy="34.4465" r="23.2026" transform="rotate(-15 324.618 34.4465)" fill="#F3F4F7"/>
<circle cx="324.618" cy="34.4465" r="25.1362" transform="rotate(-15 324.618 34.4465)" stroke="#131112" stroke-width="3.8671"/>
</g>
</g>
<g filter="url(#filter6_d_1019_298)">
<g filter="url(#filter7_d_1019_298)">
<circle cx="243.846" cy="106.534" r="7.7342" transform="rotate(-15 243.846 106.534)" fill="#97C8E5"/>
<circle cx="243.846" cy="106.534" r="8.89434" transform="rotate(-15 243.846 106.534)" stroke="#131112" stroke-width="2.32026"/>
</g>
<g filter="url(#filter8_d_1019_298)">
<circle cx="275.194" cy="74.1129" r="15.4684" transform="rotate(-15 275.194 74.1129)" fill="#97C8E5"/>
<circle cx="275.194" cy="74.1129" r="17.0153" transform="rotate(-15 275.194 74.1129)" stroke="#131112" stroke-width="3.09368"/>
</g>
<g filter="url(#filter9_d_1019_298)">
<circle cx="319.682" cy="30.965" r="23.2026" transform="rotate(-15 319.682 30.965)" fill="#97C8E5"/>
<circle cx="319.682" cy="30.965" r="25.1362" transform="rotate(-15 319.682 30.965)" stroke="#131112" stroke-width="3.8671"/>
</g>
</g>
<defs>
<filter id="filter0_d_1019_298" x="14.7656" y="92.0623" width="323.534" height="148.152" filterUnits="userSpaceOnUse" color-interpolation-filters="sRGB">
<feFlood flood-opacity="0" result="BackgroundImageFix"/>
<feColorMatrix in="SourceAlpha" type="matrix" values="0 0 0 0 0 0 0 0 0 0 0 0 0 0 0 0 0 0 127 0" result="hardAlpha"/>
<feOffset dy="1.63016"/>
<feGaussianBlur stdDeviation="0.815081"/>
<feComposite in2="hardAlpha" operator="out"/>
<feColorMatrix type="matrix" values="0 0 0 0 0.0745098 0 0 0 0 0.0666667 0 0 0 0 0.0705882 0 0 0 0.1 0"/>
<feBlend mode="normal" in2="BackgroundImageFix" result="effect1_dropShadow_1019_298"/>
<feBlend mode="normal" in="SourceGraphic" in2="effect1_dropShadow_1019_298" result="shape"/>
</filter>
<filter id="filter1_d_1019_298" x="22.1806" y="88.0466" width="323.531" height="148.151" filterUnits="userSpaceOnUse" color-interpolation-filters="sRGB">
<feFlood flood-opacity="0" result="BackgroundImageFix"/>
<feColorMatrix in="SourceAlpha" type="matrix" values="0 0 0 0 0 0 0 0 0 0 0 0 0 0 0 0 0 0 127 0" result="hardAlpha"/>
<feOffset dy="1.63016"/>
<feGaussianBlur stdDeviation="0.815081"/>
<feComposite in2="hardAlpha" operator="out"/>
<feColorMatrix type="matrix" values="0 0 0 0 0.0745098 0 0 0 0 0.0666667 0 0 0 0 0.0705882 0 0 0 0.1 0"/>
<feBlend mode="normal" in2="BackgroundImageFix" result="effect1_dropShadow_1019_298"/>
<feBlend mode="normal" in="SourceGraphic" in2="effect1_dropShadow_1019_298" result="shape"/>
</filter>
<filter id="filter2_d_1019_298" x="235.632" y="7.37012" width="119.157" height="118.889" filterUnits="userSpaceOnUse" color-interpolation-filters="sRGB">
<feFlood flood-opacity="0" result="BackgroundImageFix"/>
<feColorMatrix in="SourceAlpha" type="matrix" values="0 0 0 0 0 0 0 0 0 0 0 0 0 0 0 0 0 0 127 0" result="hardAlpha"/>
<feOffset dy="3.09368"/>
<feGaussianBlur stdDeviation="1.54684"/>
<feComposite in2="hardAlpha" operator="out"/>
<feColorMatrix type="matrix" values="0 0 0 0 0.592157 0 0 0 0 0.784314 0 0 0 0 0.898039 0 0 0 0.2 0"/>
<feBlend mode="normal" in2="BackgroundImageFix" result="effect1_dropShadow_1019_298"/>
<feBlend mode="normal" in="SourceGraphic" in2="effect1_dropShadow_1019_298" result="shape"/>
</filter>
<filter id="filter3_d_1019_298" x="235.632" y="99.9583" width="26.3011" height="26.3013" filterUnits="userSpaceOnUse" color-interpolation-filters="sRGB">
<feFlood flood-opacity="0" result="BackgroundImageFix"/>
<feColorMatrix in="SourceAlpha" type="matrix" values="0 0 0 0 0 0 0 0 0 0 0 0 0 0 0 0 0 0 127 0" result="hardAlpha"/>
<feOffset dy="3.09368"/>
<feGaussianBlur stdDeviation="1.54684"/>
<feComposite in2="hardAlpha" operator="out"/>
<feColorMatrix type="matrix" values="0 0 0 0 0.0745098 0 0 0 0 0.0666667 0 0 0 0 0.0705882 0 0 0 0.1 0"/>
<feBlend mode="normal" in2="BackgroundImageFix" result="effect1_dropShadow_1019_298"/>
<feBlend mode="normal" in="SourceGraphic" in2="effect1_dropShadow_1019_298" result="shape"/>
</filter>
<filter id="filter4_d_1019_298" x="258.47" y="59.0277" width="43.3207" height="43.3208" filterUnits="userSpaceOnUse" color-interpolation-filters="sRGB">
<feFlood flood-opacity="0" result="BackgroundImageFix"/>
<feColorMatrix in="SourceAlpha" type="matrix" values="0 0 0 0 0 0 0 0 0 0 0 0 0 0 0 0 0 0 127 0" result="hardAlpha"/>
<feOffset dy="3.09368"/>
<feGaussianBlur stdDeviation="1.54684"/>
<feComposite in2="hardAlpha" operator="out"/>
<feColorMatrix type="matrix" values="0 0 0 0 0.0745098 0 0 0 0 0.0666667 0 0 0 0 0.0705882 0 0 0 0.1 0"/>
<feBlend mode="normal" in2="BackgroundImageFix" result="effect1_dropShadow_1019_298"/>
<feBlend mode="normal" in="SourceGraphic" in2="effect1_dropShadow_1019_298" result="shape"/>
</filter>
<filter id="filter5_d_1019_298" x="294.448" y="7.37012" width="60.3402" height="60.3402" filterUnits="userSpaceOnUse" color-interpolation-filters="sRGB">
<feFlood flood-opacity="0" result="BackgroundImageFix"/>
<feColorMatrix in="SourceAlpha" type="matrix" values="0 0 0 0 0 0 0 0 0 0 0 0 0 0 0 0 0 0 127 0" result="hardAlpha"/>
<feOffset dy="3.09368"/>
<feGaussianBlur stdDeviation="1.54684"/>
<feComposite in2="hardAlpha" operator="out"/>
<feColorMatrix type="matrix" values="0 0 0 0 0.0745098 0 0 0 0 0.0666667 0 0 0 0 0.0705882 0 0 0 0.1 0"/>
<feBlend mode="normal" in2="BackgroundImageFix" result="effect1_dropShadow_1019_298"/>
<feBlend mode="normal" in="SourceGraphic" in2="effect1_dropShadow_1019_298" result="shape"/>
</filter>
<filter id="filter6_d_1019_298" x="230.695" y="3.88849" width="119.156" height="118.89" filterUnits="userSpaceOnUse" color-interpolation-filters="sRGB">
<feFlood flood-opacity="0" result="BackgroundImageFix"/>
<feColorMatrix in="SourceAlpha" type="matrix" values="0 0 0 0 0 0 0 0 0 0 0 0 0 0 0 0 0 0 127 0" result="hardAlpha"/>
<feOffset dy="3.09368"/>
<feGaussianBlur stdDeviation="1.54684"/>
<feComposite in2="hardAlpha" operator="out"/>
<feColorMatrix type="matrix" values="0 0 0 0 0.592157 0 0 0 0 0.784314 0 0 0 0 0.898039 0 0 0 0.2 0"/>
<feBlend mode="normal" in2="BackgroundImageFix" result="effect1_dropShadow_1019_298"/>
<feBlend mode="normal" in="SourceGraphic" in2="effect1_dropShadow_1019_298" result="shape"/>
</filter>
<filter id="filter7_d_1019_298" x="230.695" y="96.4768" width="26.3011" height="26.3013" filterUnits="userSpaceOnUse" color-interpolation-filters="sRGB">
<feFlood flood-opacity="0" result="BackgroundImageFix"/>
<feColorMatrix in="SourceAlpha" type="matrix" values="0 0 0 0 0 0 0 0 0 0 0 0 0 0 0 0 0 0 127 0" result="hardAlpha"/>
<feOffset dy="3.09368"/>
<feGaussianBlur stdDeviation="1.54684"/>
<feComposite in2="hardAlpha" operator="out"/>
<feColorMatrix type="matrix" values="0 0 0 0 0.0745098 0 0 0 0 0.0666667 0 0 0 0 0.0705882 0 0 0 0.1 0"/>
<feBlend mode="normal" in2="BackgroundImageFix" result="effect1_dropShadow_1019_298"/>
<feBlend mode="normal" in="SourceGraphic" in2="effect1_dropShadow_1019_298" result="shape"/>
</filter>
<filter id="filter8_d_1019_298" x="253.534" y="55.5461" width="43.3207" height="43.3208" filterUnits="userSpaceOnUse" color-interpolation-filters="sRGB">
<feFlood flood-opacity="0" result="BackgroundImageFix"/>
<feColorMatrix in="SourceAlpha" type="matrix" values="0 0 0 0 0 0 0 0 0 0 0 0 0 0 0 0 0 0 127 0" result="hardAlpha"/>
<feOffset dy="3.09368"/>
<feGaussianBlur stdDeviation="1.54684"/>
<feComposite in2="hardAlpha" operator="out"/>
<feColorMatrix type="matrix" values="0 0 0 0 0.0745098 0 0 0 0 0.0666667 0 0 0 0 0.0705882 0 0 0 0.1 0"/>
<feBlend mode="normal" in2="BackgroundImageFix" result="effect1_dropShadow_1019_298"/>
<feBlend mode="normal" in="SourceGraphic" in2="effect1_dropShadow_1019_298" result="shape"/>
</filter>
<filter id="filter9_d_1019_298" x="289.512" y="3.88849" width="60.3402" height="60.3403" filterUnits="userSpaceOnUse" color-interpolation-filters="sRGB">
<feFlood flood-opacity="0" result="BackgroundImageFix"/>
<feColorMatrix in="SourceAlpha" type="matrix" values="0 0 0 0 0 0 0 0 0 0 0 0 0 0 0 0 0 0 127 0" result="hardAlpha"/>
<feOffset dy="3.09368"/>
<feGaussianBlur stdDeviation="1.54684"/>
<feComposite in2="hardAlpha" operator="out"/>
<feColorMatrix type="matrix" values="0 0 0 0 0.0745098 0 0 0 0 0.0666667 0 0 0 0 0.0705882 0 0 0 0.1 0"/>
<feBlend mode="normal" in2="BackgroundImageFix" result="effect1_dropShadow_1019_298"/>
<feBlend mode="normal" in="SourceGraphic" in2="effect1_dropShadow_1019_298" result="shape"/>
</filter>
<clipPath id="clip0_1019_298">
<rect x="41.6819" y="89.463" width="311.601" height="63.5763" rx="4.89049" transform="rotate(15 41.6819 89.463)" fill="white"/>
</clipPath>
</defs>
</svg>
