<svg width="349" height="188" viewBox="0 0 349 188" fill="none" xmlns="http://www.w3.org/2000/svg">
<g filter="url(#filter0_d_1019_260)">
<g clip-path="url(#clip0_1019_260)">
<rect x="30.6119" y="2.26062" width="324.665" height="97.0263" rx="7.46356" transform="rotate(15 30.6119 2.26062)" fill="#FF1654"/>
<path d="M57.3196 62.9814C57.2103 62.3471 57.1154 61.8329 57.0348 61.439C56.9976 61.0567 57.043 60.6267 57.171 60.1491C57.2757 59.7583 57.4122 59.4225 57.5805 59.1418C57.8038 58.8293 57.9679 58.4777 58.0726 58.0868C58.3286 57.1315 58.5237 56.2297 58.6579 55.3814C58.8356 54.5447 59.0148 53.6153 59.1955 52.5933C59.187 52.4514 59.0641 52.3021 58.8268 52.1454C58.5896 51.9888 58.3364 51.8046 58.0673 51.5929C57.8099 51.3377 57.5917 51.0233 57.4126 50.6495C57.2769 50.2873 57.2847 49.824 57.4359 49.2595C57.5756 48.7384 57.8005 48.3333 58.1107 48.0441C58.476 47.7231 58.8296 47.4455 59.1716 47.2113C59.5252 46.9337 59.8571 46.6503 60.1673 46.3611C60.5326 46.0401 60.785 45.6191 60.9246 45.098C60.9828 44.8809 61.0658 44.4842 61.1737 43.9081C61.2931 43.2885 61.4184 42.6472 61.5495 41.9842C61.7241 41.3329 61.8652 40.7191 61.9731 40.143C62.136 39.535 62.2465 39.1225 62.3047 38.9054L62.3396 38.7751L62.3745 38.6449C62.6529 38.3006 62.8705 38.0098 63.0271 37.7725C63.2272 37.5469 63.4098 37.3864 63.575 37.291C63.7402 37.1957 63.9372 37.1554 64.1659 37.1701C64.4063 37.1414 64.7002 37.1737 65.0476 37.2667C65.9595 37.5111 66.586 37.8651 66.9272 38.3289C67.2683 38.7926 67.4618 39.2866 67.5075 39.8108C67.5648 40.2916 67.5628 40.7332 67.5015 41.1356C67.4402 41.5381 67.4906 41.7843 67.6527 41.8743L73.442 39.0273L73.7026 39.0971C75.49 38.5056 77.3003 38.1762 79.1335 38.1089C80.9783 37.9982 82.8343 38.193 84.7015 38.6933C85.266 38.8446 85.9217 39.09 86.6684 39.4298C87.4585 39.7811 88.1544 40.2236 88.7561 40.7571C89.4129 41.2589 89.9103 41.8343 90.2483 42.4834C90.6298 43.1441 90.7158 43.8653 90.5064 44.6469C90.2737 45.5154 89.9266 46.3765 89.4651 47.2302C89.0037 48.0839 88.4554 48.9144 87.8202 49.7216C87.2401 50.497 86.579 51.2274 85.8368 51.9128C85.1497 52.5665 84.4483 53.0999 83.7325 53.5131C83.3874 53.9326 81.672 54.7762 78.5864 56.0438C75.5008 57.3113 70.8999 59.1968 64.7838 61.7002L95.5254 72.0318C95.948 72.1916 96.5226 72.3921 97.2492 72.6333C98.0308 72.8427 98.7516 73.1057 99.4115 73.4221C100.115 73.7502 100.675 74.1795 101.091 74.7099C101.519 75.1969 101.634 75.8095 101.436 76.5477C101.332 76.9385 101.179 77.2468 100.979 77.4724C100.834 77.6663 100.651 77.8268 100.431 77.9539C100.266 78.0493 100.057 78.133 99.8054 78.2051C99.5968 78.2888 99.3765 78.416 99.1446 78.5866L98.0373 78.2899L96.93 77.9932C96.0848 77.6736 95.202 77.3207 94.2816 76.9345C93.4046 76.5598 92.3597 76.117 91.147 75.6058C89.9776 75.1064 88.5912 74.5487 86.9876 73.9328C85.384 73.317 83.449 72.6356 81.1824 71.8887C78.9158 71.1417 76.2527 70.3118 73.1928 69.3988C70.1764 68.4975 66.649 67.5058 62.6106 66.4237C62.5671 66.412 62.4846 66.4597 62.3628 66.5667C62.2845 66.6854 62.2337 66.7881 62.2104 66.8749C61.7683 68.5251 61.4622 70.1884 61.2922 71.8649C61.1773 73.5096 60.9104 75.1136 60.4916 76.6768C60.4101 76.9808 60.2736 77.3165 60.082 77.6841C59.9455 78.0198 59.7439 78.3381 59.4771 78.639C59.222 78.8964 58.935 79.0988 58.6163 79.2461C58.2976 79.3934 57.9428 79.4147 57.552 79.31C57.2915 79.2402 56.9991 79.1153 56.675 78.9354C56.3625 78.712 56.0617 78.4452 55.7725 78.135C55.5267 77.8365 55.3084 77.522 55.1177 77.1916C54.9269 76.8613 54.8564 76.5166 54.9061 76.1576L57.3196 62.9814ZM65.5409 49.7557C65.25 50.8413 64.9983 51.8676 64.7857 52.8346C64.5731 53.8015 64.359 54.8611 64.1434 56.0134L64.3388 56.0658C64.3822 56.0774 64.5024 56.0631 64.6994 56.0228C64.8963 55.9825 65.4004 55.8383 66.2115 55.5902C67.0343 55.2987 68.2902 54.8673 69.9791 54.2959C71.6797 53.6812 74.0713 52.8326 77.1538 51.7504C77.7563 51.586 78.4604 51.2162 79.2662 50.6409C80.0719 50.0656 80.8517 49.4135 81.6055 48.6847C82.3593 47.9558 83.0204 47.2254 83.5889 46.4934C84.169 45.718 84.5346 45.0481 84.6859 44.4836C84.8023 44.0493 84.6433 43.774 84.2091 43.6577C83.8183 43.5529 83.4709 43.4599 83.1669 43.3784C82.5155 43.2039 81.7482 43.1146 80.865 43.1107C79.9818 43.1067 78.8667 43.2734 77.5197 43.6106C76.2161 43.9594 74.5981 44.5265 72.6656 45.3119C70.7766 46.1089 68.4947 47.2427 65.8201 48.7135L65.5409 49.7557ZM128.691 78.4751C128.395 79.2335 128.123 79.8123 127.877 80.2117C127.674 80.6226 127.395 80.9669 127.042 81.2445C126.688 81.5221 126.22 81.7923 125.638 82.0551C125.067 82.2745 124.276 82.621 123.265 83.0948C122.265 83.525 121.012 84.1201 119.505 84.8799C117.998 85.6397 116.144 86.6554 113.941 87.9269C113.072 88.3921 112.175 88.8732 111.251 89.3702C110.327 89.8672 109.376 90.2874 108.4 90.6308C107.479 90.9425 106.537 91.1556 105.576 91.2703C104.614 91.385 103.656 91.3143 102.7 91.0584C100.833 90.558 99.6339 89.5619 99.1029 88.0699C98.5718 86.5779 98.5274 85.0068 98.9695 83.3567C99.2604 82.2711 99.5265 81.365 99.7677 80.6384C100.052 79.9235 100.482 79.0147 101.057 77.9121C100.695 77.3499 100.382 76.8702 100.116 76.4732C99.8615 76.0327 99.81 75.5302 99.9613 74.9657C100.101 74.4446 100.303 74.1263 100.566 74.0108C100.873 73.9069 101.185 73.874 101.5 73.912C101.871 73.9182 102.22 73.9186 102.547 73.9132C102.874 73.9078 103.138 73.7923 103.338 73.5667C103.495 73.3294 103.775 72.8925 104.178 72.2559C104.625 71.6309 105.077 70.9842 105.536 70.3158C106.006 69.604 106.436 68.9515 106.828 68.3583C107.275 67.7334 107.576 67.3022 107.733 67.065C108.235 66.4082 108.758 65.7573 109.304 65.1121C109.904 64.4352 110.524 63.8568 111.165 63.3768C111.849 62.9085 112.569 62.5662 113.325 62.35C114.124 62.1453 114.98 62.1652 115.892 62.4095C116.413 62.5491 116.979 62.9567 117.589 63.6321C118.243 64.3192 118.824 65.1033 119.332 65.9842C119.853 66.8217 120.253 67.6736 120.532 68.5398C120.812 69.406 120.882 70.0996 120.743 70.6207C120.568 71.2721 120.253 71.8393 119.798 72.3224C119.355 72.762 118.83 73.1566 118.224 73.5063C117.674 73.8242 117.086 74.1087 116.46 74.3599C115.834 74.6111 115.257 74.8522 114.73 75.0833C114.687 75.0716 114.588 75.0918 114.435 75.1437C114.281 75.1957 114.155 75.2317 114.057 75.2519C114.001 75.2837 113.864 75.3631 113.644 75.4903C113.478 75.5857 113.286 75.6969 113.065 75.8241C112.845 75.9512 112.625 76.0784 112.405 76.2055C112.228 76.3443 112.112 76.4296 112.057 76.4614C111.892 76.5568 111.573 76.7041 111.101 76.9033C110.684 77.0708 110.211 77.27 109.684 77.5011C109.168 77.6887 108.674 77.8821 108.202 78.0814C107.785 78.2488 107.499 78.3585 107.346 78.4105L106.946 78.8617C106.812 79.0122 106.621 79.3797 106.371 79.9644C106.176 80.5173 105.937 81.1512 105.652 81.8661C105.367 82.581 105.077 83.3177 104.781 84.076C104.539 84.8026 104.355 85.4047 104.227 85.8824C104.215 85.9258 104.225 85.9751 104.257 86.0301C104.321 86.1402 104.374 86.2011 104.418 86.2128C104.765 86.3058 105.131 86.2411 105.517 86.0186C105.902 85.7961 106.286 85.6662 106.668 85.629L119.673 78.7814L123.443 75.3934C123.742 75.1476 124.242 74.9325 124.943 74.748C125.699 74.5317 126.402 74.5108 127.054 74.6854C127.717 74.8165 128.229 75.1631 128.59 75.7254C128.995 76.2992 129.029 77.2158 128.691 78.4751ZM115.723 69.5548C115.986 69.4393 116.143 69.202 116.193 68.843C116.242 68.484 116.193 68.1451 116.046 67.8264C115.942 67.5193 115.744 67.3033 115.452 67.1784C115.171 67.0102 114.848 67.0865 114.483 67.4075C114.306 67.5463 113.974 67.8297 113.487 68.2577C113.044 68.6973 112.572 69.1529 112.074 69.6243C111.63 70.0639 111.247 70.4501 110.926 70.7827C110.604 71.1154 110.52 71.2557 110.673 71.2038L115.723 69.5548ZM132.657 96.7116C132.715 96.4945 132.768 96.2991 132.814 96.1254C132.904 95.9633 133.059 95.8187 133.279 95.6916C133.975 95.1798 134.742 94.6638 135.579 94.1436C136.428 93.5799 137.25 93.0321 138.044 92.5002C138.85 91.9249 139.618 91.3163 140.348 90.6743C141.079 90.0323 141.723 89.367 142.279 88.6784L142.384 88.2876L133.38 87.7599L132.403 87.4981C131.795 87.3352 131.047 87.0882 130.158 86.757C129.313 86.4374 128.491 86.031 127.692 85.5378C126.949 85.0127 126.343 84.4082 125.875 83.7243C125.45 83.0519 125.354 82.2815 125.586 81.413C125.897 80.4259 126.715 79.4582 128.04 78.51C129.364 77.5617 130.857 76.6817 132.517 75.8699C134.177 75.0582 135.814 74.3333 137.428 73.6952C139.085 73.0688 140.402 72.5839 141.378 72.2405C142.43 71.9637 143.626 71.8421 144.967 71.8755C146.319 71.8656 147.516 72.0002 148.558 72.2795C149.427 72.5122 150.14 72.8895 150.699 73.4114C151.268 73.8899 151.425 74.6068 151.169 75.5621C151.065 75.953 150.922 76.3104 150.742 76.6346C150.606 76.9703 150.281 77.1393 149.769 77.1416C148.414 76.639 147.082 76.3985 145.773 76.4201C144.476 76.3983 143.197 76.5676 141.937 76.9281C140.677 77.2885 139.447 77.7967 138.248 78.4527C137.06 79.0652 135.882 79.7269 134.714 80.4379C134.372 80.6721 133.93 81.019 133.388 81.4788C132.857 81.8952 132.58 82.1468 132.557 82.2336L132.54 82.2988C133.669 82.6013 134.805 82.7894 135.949 82.8632C137.136 82.9486 138.301 83.0282 139.445 83.102C140.644 83.1439 141.815 83.2018 142.959 83.2756C144.146 83.361 145.326 83.5608 146.499 83.8749C146.933 83.9913 147.399 84.1627 147.897 84.3891C148.406 84.5722 148.849 84.8305 149.225 85.1639C149.644 85.509 149.932 85.9119 150.088 86.3725C150.299 86.8014 150.329 87.2981 150.177 87.8626C149.956 88.6876 149.524 89.4328 148.88 90.0981C148.292 90.7316 147.439 91.4806 146.323 92.3451C145.263 93.1778 143.899 94.1854 142.232 95.3678C140.609 96.5619 138.631 98.1261 136.297 100.061C136.176 100.168 135.935 100.196 135.576 100.147C135.261 100.109 134.994 100.061 134.777 100.002C134.169 99.8395 133.609 99.4102 133.098 98.7146C132.629 98.0306 132.482 97.363 132.657 96.7116ZM148.525 92.935L155.421 76.8408C155.659 76.2996 156.008 75.9511 156.469 75.7952C156.973 75.651 157.485 75.6488 158.006 75.7884C158.962 76.0444 159.646 76.5302 160.059 77.246C160.484 77.9184 160.787 78.6977 160.969 79.5841L161.034 79.6015C161.555 79.7411 162.034 79.7765 162.471 79.7075C162.964 79.6067 163.514 79.6378 164.122 79.8007C165.511 80.173 166.568 80.9214 167.29 82.0459C168.056 83.182 168.575 84.4611 168.845 85.8833C169.127 87.2621 169.207 88.7028 169.083 90.2056C169.003 91.7201 168.818 93.0201 168.527 94.1057C168.178 95.4084 167.441 96.77 166.315 98.1906C165.233 99.6227 163.936 100.904 162.423 102.034C160.953 103.177 159.396 104.039 157.75 104.622C156.105 105.205 154.565 105.305 153.132 104.921C151.83 104.572 150.782 103.965 149.99 103.101C149.241 102.249 148.684 101.285 148.321 100.211C148.012 99.104 147.885 97.9296 147.938 96.6873C147.992 95.4451 148.17 94.2594 148.473 93.1304L148.525 92.935ZM153.892 94.7919C153.862 95.2494 153.815 95.772 153.751 96.3598C153.686 96.9476 153.677 97.5036 153.723 98.0278C153.78 98.5086 153.926 98.92 154.16 99.262C154.449 99.5722 154.927 99.7002 155.593 99.6459C156.297 99.2761 157.062 98.8528 157.888 98.3759C158.714 97.8991 159.508 97.3672 160.27 96.7803C161.076 96.205 161.785 95.5571 162.397 94.8368C163.009 94.1165 163.437 93.3004 163.681 92.3885C164.25 90.9586 164.503 89.5833 164.438 88.2628C164.384 86.8987 164.058 85.8573 163.46 85.1384C162.916 84.3877 162.13 84.1073 161.102 84.2972C160.085 84.4437 158.877 85.3067 157.476 86.8861C156.653 87.8755 155.929 89.1011 155.304 90.5627C154.735 91.9926 154.282 93.3372 153.944 94.5965L153.892 94.7919ZM178.895 105.122C178.417 105.692 177.921 106.327 177.407 107.027C176.906 107.684 176.378 108.264 175.824 108.767C175.27 109.27 174.653 109.663 173.972 109.946C173.303 110.186 172.534 110.189 171.666 109.956C170.146 109.549 168.985 108.843 168.185 107.837C167.395 106.788 166.826 105.611 166.477 104.308C166.184 102.972 166.087 101.597 166.187 100.181C166.287 98.7648 166.494 97.4706 166.808 96.2981L171.553 80.6749C171.591 80.3593 171.738 80.0727 171.993 79.8153C172.303 79.5261 172.645 79.2919 173.019 79.1129C173.448 78.902 173.881 78.762 174.318 78.6931C174.799 78.6357 175.213 78.6536 175.56 78.7467C176.559 79.0143 177.319 79.5669 177.839 80.4044C178.371 81.1985 178.503 82.0949 178.235 83.0937L178.061 83.745C177.374 84.3987 176.688 85.3086 176.003 86.4748C175.318 87.641 174.669 88.9332 174.057 90.3515C173.499 91.7379 172.995 93.1852 172.544 94.6934C172.093 96.2017 171.764 97.6029 171.557 98.8971C171.394 100.203 171.363 101.358 171.466 102.363C171.581 103.325 171.897 103.968 172.415 104.293C172.632 104.351 172.987 104.33 173.48 104.229C174.015 104.14 174.625 103.861 175.309 103.393C175.993 102.925 176.763 102.223 177.618 101.289C178.485 100.311 179.38 98.9687 180.303 97.2612C181.226 95.5538 182.145 93.4264 183.061 90.8792C183.976 88.3319 184.879 85.2228 185.769 81.5519C186.071 81.1208 186.38 80.9243 186.695 80.9623C187.054 81.012 187.407 81.0833 187.755 81.1764C188.146 81.2811 188.465 81.3901 188.714 81.5033C188.975 81.5732 189.216 81.8008 189.439 82.1862C189.598 82.4615 189.75 82.8512 189.894 83.3552C190.038 83.8593 190.104 84.133 190.093 84.1764L183.468 113.328C183.294 113.98 182.974 114.476 182.511 114.817C182.047 115.158 181.489 115.242 180.838 115.067C180.621 115.009 180.366 114.917 180.074 114.792C179.782 114.668 179.501 114.499 179.232 114.288C178.963 114.076 178.727 113.827 178.525 113.54C178.354 113.308 178.282 113.056 178.308 112.784L178.946 105.973L178.895 105.122ZM187.484 111.054C187.817 109.467 188.223 107.342 188.704 104.678C189.24 101.983 189.756 99.189 190.252 96.2967C190.791 93.4159 191.268 90.6814 191.682 88.093C192.096 85.5045 192.403 83.4923 192.601 82.0562C192.753 81.4917 193.112 81.1924 193.68 81.1583C194.247 81.1242 194.77 81.1712 195.248 81.2992C195.856 81.4621 196.439 81.8045 196.997 82.3264C197.599 82.86 197.905 83.454 197.916 84.1085C197.869 84.2822 197.804 84.6137 197.719 85.103C197.646 85.5488 197.546 86.0106 197.418 86.4883C197.333 86.9776 197.249 87.4669 197.164 87.9562C197.091 88.402 197.031 88.7118 196.985 88.8855C196.915 89.1461 196.863 89.3415 196.828 89.4717C196.793 89.602 196.758 89.7323 196.723 89.8626C196.7 89.9494 196.692 90.0638 196.701 90.2057C196.709 90.3476 196.716 90.5822 196.722 90.9094C196.832 90.8458 196.948 90.7605 197.07 90.6535C197.235 90.5582 197.345 90.4946 197.4 90.4628C198.362 89.6502 199.268 88.9621 200.117 88.3984C200.978 87.7913 201.843 87.2552 202.712 86.79C203.593 86.2814 204.545 85.7685 205.568 85.2514C206.646 84.7024 207.883 84.0799 209.28 83.3836C209.599 83.2363 209.835 83.1367 209.988 83.0848C210.154 82.9894 210.285 82.9316 210.384 82.9115C210.537 82.8595 210.679 82.851 210.81 82.8859C210.952 82.8774 211.131 82.9022 211.348 82.9604C212.086 83.1582 212.755 83.6166 213.353 84.3355C214.007 85.0226 214.217 85.8003 213.985 86.6688C213.903 86.9728 213.707 87.2694 213.397 87.5586C213.099 87.8044 212.757 88.0385 212.371 88.2611C211.997 88.4402 211.608 88.5917 211.202 88.7158C210.84 88.8514 210.517 88.9278 210.233 88.9448C208.837 89.6411 207.334 90.4718 205.726 91.4371C204.129 92.359 202.59 93.4127 201.109 94.5982C199.628 95.7837 198.324 97.0868 197.199 98.5073C196.074 99.9278 195.296 101.441 194.865 103.048C194.47 104.524 194.189 106.008 194.022 107.499C193.855 108.991 193.574 110.474 193.178 111.951L192.567 114.231C192.127 114.485 191.747 114.686 191.428 114.833C191.11 114.98 190.712 114.99 190.234 114.862C189.496 114.664 188.861 114.168 188.329 113.374C187.809 112.537 187.527 111.763 187.484 111.054ZM205.816 110.59C205.861 109.206 206.274 107.664 207.055 105.965C207.879 104.278 208.878 102.637 210.049 101.043C211.276 99.4169 212.626 97.9402 214.099 96.6128C215.615 95.297 217.087 94.3185 218.516 93.6773C219.987 93.0478 221.343 92.8525 222.582 93.0914C223.876 93.2986 224.925 94.1613 225.728 95.6797C225.717 95.7232 225.709 95.8375 225.706 96.0229C225.703 96.2082 225.648 96.5889 225.54 97.1651C225.443 97.6978 225.262 98.4635 224.994 99.4623C224.781 100.429 224.448 101.76 223.994 103.453C224.015 103.552 224.017 103.715 224.003 103.944C224.043 104.141 224.051 104.283 224.028 104.37C223.77 104.812 223.387 105.199 222.88 105.528C222.428 105.826 221.92 105.899 221.355 105.748C220.617 105.55 220.038 105.278 219.618 104.933C219.254 104.556 219.085 103.883 219.113 102.913C219.234 102.806 219.326 102.551 219.387 102.149C219.46 101.703 219.501 101.202 219.511 100.646C219.563 100.102 219.616 99.5572 219.669 99.0129C219.722 98.4685 219.789 98.0443 219.87 97.7404C219.827 97.7287 219.75 97.7547 219.64 97.8183C219.585 97.8501 219.53 97.8819 219.475 97.9136C218.388 99.0186 217.303 100.287 216.221 101.719C215.194 103.12 214.286 104.598 213.497 106.155C212.762 107.681 212.223 109.258 211.879 110.888C211.579 112.53 211.667 114.112 212.143 115.636C212.751 115.799 213.379 115.712 214.029 115.373C214.689 114.992 215.251 114.631 215.715 114.29C216.686 113.619 217.641 112.921 218.58 112.195C219.563 111.481 220.492 110.706 221.367 109.87C221.744 109.506 222.044 109.167 222.268 108.855C222.491 108.542 222.719 108.301 222.951 108.13C223.226 107.971 223.533 107.867 223.872 107.818C224.211 107.77 224.684 107.827 225.292 107.99C225.987 108.176 226.592 108.524 227.107 109.034C227.633 109.501 227.797 110.104 227.6 110.842C227.332 111.841 226.539 112.978 225.219 114.253C223.955 115.497 222.486 116.639 220.811 117.679C219.179 118.732 217.513 119.565 215.812 120.18C214.123 120.751 212.736 120.891 211.651 120.601C210.608 120.321 209.64 119.852 208.746 119.194C207.907 118.504 207.212 117.712 206.66 116.82C206.151 115.939 205.808 114.963 205.629 113.891C205.451 112.819 205.513 111.719 205.816 110.59ZM255.628 112.488C255.332 113.246 255.06 113.825 254.814 114.224C254.611 114.635 254.332 114.98 253.979 115.257C253.625 115.535 253.157 115.805 252.574 116.068C252.004 116.287 251.213 116.634 250.202 117.107C249.202 117.538 247.949 118.133 246.442 118.893C244.935 119.652 243.081 120.668 240.878 121.94C240.009 122.405 239.112 122.886 238.188 123.383C237.263 123.88 236.313 124.3 235.337 124.643C234.416 124.955 233.474 125.168 232.513 125.283C231.551 125.398 230.593 125.327 229.637 125.071C227.77 124.571 226.571 123.575 226.04 122.083C225.509 120.591 225.464 119.019 225.906 117.369C226.197 116.284 226.463 115.378 226.705 114.651C226.989 113.936 227.419 113.027 227.994 111.925C227.632 111.363 227.319 110.883 227.053 110.486C226.798 110.045 226.747 109.543 226.898 108.978C227.038 108.457 227.239 108.139 227.503 108.023C227.81 107.92 228.122 107.887 228.437 107.925C228.808 107.931 229.157 107.931 229.484 107.926C229.811 107.92 230.075 107.805 230.275 107.579C230.432 107.342 230.712 106.905 231.115 106.269C231.562 105.644 232.014 104.997 232.472 104.328C232.942 103.617 233.373 102.964 233.765 102.371C234.212 101.746 234.513 101.315 234.67 101.078C235.172 100.421 235.695 99.7699 236.24 99.1248C236.841 98.4479 237.461 97.8694 238.102 97.3895C238.786 96.9212 239.506 96.5789 240.262 96.3626C241.061 96.1579 241.917 96.1778 242.829 96.4221C243.35 96.5618 243.916 96.9693 244.526 97.6448C245.179 98.3319 245.761 99.1159 246.269 99.9969C246.789 100.834 247.189 101.686 247.469 102.552C247.749 103.419 247.819 104.112 247.68 104.633C247.505 105.285 247.19 105.852 246.735 106.335C246.291 106.775 245.767 107.169 245.161 107.519C244.611 107.837 244.022 108.121 243.397 108.373C242.771 108.624 242.194 108.865 241.667 109.096C241.623 109.084 241.525 109.104 241.371 109.156C241.218 109.208 241.092 109.244 240.993 109.265C240.938 109.296 240.801 109.376 240.58 109.503C240.415 109.598 240.223 109.71 240.002 109.837C239.782 109.964 239.562 110.091 239.342 110.218C239.165 110.357 239.049 110.442 238.994 110.474C238.829 110.569 238.51 110.717 238.038 110.916C237.62 111.083 237.148 111.283 236.621 111.514C236.105 111.701 235.611 111.895 235.139 112.094C234.722 112.261 234.436 112.371 234.283 112.423L233.883 112.874C233.749 113.025 233.558 113.392 233.308 113.977C233.113 114.53 232.874 115.164 232.589 115.879C232.304 116.594 232.014 117.33 231.718 118.089C231.476 118.815 231.292 119.417 231.164 119.895C231.152 119.938 231.162 119.988 231.194 120.043C231.258 120.153 231.311 120.214 231.354 120.225C231.702 120.318 232.068 120.254 232.454 120.031C232.839 119.809 233.223 119.679 233.605 119.642L246.61 112.794L250.38 109.406C250.679 109.16 251.179 108.945 251.88 108.761C252.636 108.544 253.339 108.523 253.991 108.698C254.654 108.829 255.166 109.176 255.527 109.738C255.932 110.312 255.966 111.228 255.628 112.488ZM242.66 103.567C242.923 103.452 243.08 103.215 243.13 102.856C243.179 102.497 243.13 102.158 242.983 101.839C242.879 101.532 242.681 101.316 242.389 101.191C242.108 101.023 241.785 101.099 241.42 101.42C241.243 101.559 240.911 101.842 240.424 102.27C239.98 102.71 239.509 103.166 239.011 103.637C238.567 104.077 238.184 104.463 237.863 104.795C237.541 105.128 237.457 105.268 237.61 105.216L242.66 103.567ZM255.666 117.245C254.664 117.163 253.922 116.894 253.438 116.439C253.01 115.952 252.752 115.44 252.663 114.905C252.585 114.325 252.611 113.797 252.739 113.319C252.922 112.81 253.117 112.513 253.326 112.429C253.468 112.421 253.797 112.323 254.312 112.135C254.871 111.959 255.206 111.839 255.316 111.776C255.36 111.788 255.409 111.777 255.464 111.746C255.574 111.682 255.657 111.634 255.712 111.603L256.026 110.43C256.677 107.998 257.165 105.569 257.49 103.143C257.869 100.685 258.379 98.2617 259.019 95.8734C259.438 94.3101 259.896 92.6875 260.393 91.0056C260.934 89.3353 261.635 87.8477 262.496 86.5427C263.401 85.2494 264.519 84.2922 265.849 83.6711C267.179 83.0501 268.864 83.013 270.905 83.5599C271.252 83.653 271.665 83.7635 272.143 83.8915C272.62 84.0195 273.037 84.201 273.393 84.436C273.804 84.6392 274.121 84.9335 274.343 85.3189C274.577 85.6609 274.625 86.0924 274.485 86.6135C274.276 87.3952 273.941 87.8639 273.48 88.0197C273.074 88.1438 272.578 88.1736 271.99 88.1092C271.414 88.0013 270.804 87.9311 270.161 87.8985C269.53 87.8224 268.922 88.0085 268.336 88.4566C268.226 88.5202 268.054 88.73 267.819 89.0859C267.595 89.3983 267.466 89.6197 267.431 89.75C267.263 90.0307 267.066 90.4199 266.839 90.9178C266.613 91.4156 266.386 91.9134 266.16 92.4112C265.977 92.9207 265.784 93.3809 265.58 93.7918C265.432 94.171 265.352 94.3823 265.341 94.4258C265.329 94.4692 265.283 94.6429 265.201 94.9468C265.131 95.2074 265.022 95.5272 264.874 95.9064C264.769 96.2972 264.659 96.7098 264.543 97.144C264.438 97.5348 264.351 97.8605 264.281 98.121C264.036 99.033 263.81 99.8797 263.6 100.661C263.391 101.443 263.203 102.23 263.037 103.024C262.883 103.774 262.744 104.551 262.621 105.356C262.499 106.161 262.375 107.058 262.249 108.049L262.77 108.188L272.96 105.333C273.603 105.366 274.204 105.294 274.763 105.118C275.322 104.942 275.905 104.936 276.513 105.099C277.121 105.262 277.71 105.582 278.28 106.061C278.85 106.539 279.048 107.104 278.873 107.756C278.745 108.233 278.543 108.552 278.268 108.711C277.993 108.87 277.738 109.127 277.503 109.483C277.317 109.48 276.957 109.523 276.421 109.612C275.885 109.701 275.519 109.766 275.322 109.806C274.916 109.93 274.259 110.126 273.349 110.394C272.494 110.631 271.585 110.899 270.62 111.199C269.667 111.456 268.785 111.708 267.974 111.956C267.163 112.204 266.631 112.364 266.379 112.436C266.017 112.572 265.578 112.734 265.062 112.921C264.547 113.109 264.025 113.318 263.498 113.549C263.026 113.748 262.603 113.938 262.229 114.117C261.867 114.252 261.686 114.32 261.686 114.32L261.511 114.972L261.721 120.962C261.643 121.081 261.58 121.227 261.534 121.4C261.542 121.542 261.622 121.68 261.772 121.813L262.338 131.948C262.345 132.788 261.997 133.393 261.293 133.763C260.632 134.144 259.955 134.242 259.26 134.056C258.478 133.846 257.776 133.425 257.155 132.793C256.521 132.205 256.206 131.469 256.21 130.586L255.787 117.836L255.666 117.245ZM279.4 132.052C278.921 132.622 278.426 133.257 277.912 133.957C277.41 134.614 276.883 135.194 276.329 135.697C275.775 136.2 275.158 136.593 274.477 136.876C273.808 137.116 273.039 137.119 272.17 136.887C270.651 136.479 269.49 135.773 268.689 134.767C267.9 133.718 267.331 132.541 266.982 131.238C266.688 129.903 266.591 128.527 266.692 127.111C266.792 125.695 266.999 124.401 267.313 123.228L272.058 107.605C272.096 107.289 272.242 107.003 272.498 106.745C272.808 106.456 273.15 106.222 273.524 106.043C273.952 105.832 274.386 105.692 274.823 105.623C275.304 105.566 275.718 105.584 276.065 105.677C277.064 105.944 277.823 106.497 278.344 107.335C278.876 108.129 279.008 109.025 278.74 110.024L278.565 110.675C277.878 111.329 277.192 112.239 276.508 113.405C275.823 114.571 275.174 115.863 274.561 117.282C274.004 118.668 273.499 120.115 273.049 121.624C272.598 123.132 272.269 124.533 272.062 125.827C271.898 127.133 271.868 128.288 271.971 129.293C272.086 130.255 272.402 130.898 272.92 131.223C273.137 131.281 273.492 131.26 273.984 131.159C274.52 131.07 275.13 130.792 275.814 130.323C276.498 129.855 277.268 129.154 278.123 128.219C278.99 127.241 279.885 125.899 280.808 124.191C281.731 122.484 282.65 120.357 283.565 117.809C284.481 115.262 285.383 112.153 286.274 108.482C286.576 108.051 286.884 107.854 287.2 107.892C287.559 107.942 287.912 108.013 288.26 108.107C288.65 108.211 288.97 108.32 289.219 108.434C289.48 108.503 289.721 108.731 289.944 109.116C290.103 109.392 290.254 109.781 290.398 110.285C290.543 110.789 290.609 111.063 290.597 111.107L283.973 140.259C283.798 140.91 283.479 141.406 283.015 141.747C282.552 142.088 281.994 142.172 281.343 141.997C281.126 141.939 280.871 141.848 280.579 141.723C280.286 141.598 280.006 141.429 279.737 141.218C279.467 141.006 279.232 140.757 279.029 140.47C278.859 140.238 278.787 139.986 278.813 139.714L279.451 132.903L279.4 132.052ZM286.05 135.579C286.539 133.755 287.06 131.987 287.612 130.273C288.164 128.559 288.685 126.791 289.173 124.967C290.369 119.982 291.623 115.128 292.935 110.407C294.258 105.642 295.35 100.698 296.211 95.5764C296.432 94.7514 296.773 94.261 297.233 94.1051C297.705 93.9059 298.332 93.911 299.114 94.1204C300.113 94.388 300.878 94.9189 301.41 95.713C301.997 96.4753 302.173 97.3834 301.937 98.4372C300.198 104.58 298.622 110.72 297.21 116.858C295.854 122.964 294.343 129.121 292.679 135.331L291.335 140.346C290.982 140.624 290.52 140.872 289.949 141.092C289.378 141.311 288.866 141.314 288.411 141.099C287.21 140.544 286.432 139.8 286.077 138.868C285.733 137.891 285.725 136.795 286.05 135.579Z" fill="#131112"/>
</g>
<rect x="29.2556" y="-0.0885796" width="328.501" height="100.862" rx="9.38167" transform="rotate(15 29.2556 -0.0885796)" stroke="#131112" stroke-width="3.83623"/>
</g>
<defs>
<filter id="filter0_d_1019_260" x="0.850159" y="0.098999" width="348.013" height="187.049" filterUnits="userSpaceOnUse" color-interpolation-filters="sRGB">
<feFlood flood-opacity="0" result="BackgroundImageFix"/>
<feColorMatrix in="SourceAlpha" type="matrix" values="0 0 0 0 0 0 0 0 0 0 0 0 0 0 0 0 0 0 127 0" result="hardAlpha"/>
<feOffset dy="2.48785"/>
<feGaussianBlur stdDeviation="1.24393"/>
<feComposite in2="hardAlpha" operator="out"/>
<feColorMatrix type="matrix" values="0 0 0 0 0.0745098 0 0 0 0 0.0666667 0 0 0 0 0.0705882 0 0 0 0.1 0"/>
<feBlend mode="normal" in2="BackgroundImageFix" result="effect1_dropShadow_1019_260"/>
<feBlend mode="normal" in="SourceGraphic" in2="effect1_dropShadow_1019_260" result="shape"/>
</filter>
<clipPath id="clip0_1019_260">
<rect x="30.6119" y="2.26062" width="324.665" height="97.0263" rx="7.46356" transform="rotate(15 30.6119 2.26062)" fill="white"/>
</clipPath>
</defs>
</svg>
