<svg width="283" height="259" viewBox="0 0 283 259" fill="none" xmlns="http://www.w3.org/2000/svg">
<g filter="url(#filter0_d_1015_136)">
<circle cx="10" cy="10" r="10" transform="matrix(-1 0 0 1 274.514 226.768)" fill="#FF8600"/>
<circle cx="10" cy="10" r="12" transform="matrix(-1 0 0 1 274.514 226.768)" stroke="#131112" stroke-width="4"/>
</g>
<g filter="url(#filter1_d_1015_136)">
<circle cx="20" cy="20" r="20" transform="matrix(-1 0 0 1 234.514 186.768)" fill="#FF8600"/>
<circle cx="20" cy="20" r="22.5" transform="matrix(-1 0 0 1 234.514 186.768)" stroke="#131112" stroke-width="5"/>
</g>
<g filter="url(#filter2_d_1015_136)">
<path d="M171.876 39.369C187.846 56.2576 156.045 96.7438 156.045 96.7438C156.045 96.7438 217.021 102.614 213.04 127.612C209.146 152.058 151.445 142.581 151.445 142.581C151.445 142.581 162.46 201.483 137.239 207.346C110.314 213.605 103.431 145.159 103.431 145.159C103.431 145.159 40.3969 173.416 30.5145 145.159C20.665 116.995 75.0145 96.7438 75.0145 96.7438C75.0145 96.7438 40.1173 54.7353 62.0145 39.369C83.7006 24.1507 115.014 73.2678 115.014 73.2678C115.014 73.2678 142.94 8.76782 171.876 39.369Z" fill="#FF8600"/>
<path d="M171.876 39.369C187.846 56.2576 156.045 96.7438 156.045 96.7438C156.045 96.7438 217.021 102.614 213.04 127.612C209.146 152.058 151.445 142.581 151.445 142.581C151.445 142.581 162.46 201.483 137.239 207.346C110.314 213.605 103.431 145.159 103.431 145.159C103.431 145.159 40.3969 173.416 30.5145 145.159C20.665 116.995 75.0145 96.7438 75.0145 96.7438C75.0145 96.7438 40.1173 54.7353 62.0145 39.369C83.7006 24.1507 115.014 73.2678 115.014 73.2678C115.014 73.2678 142.94 8.76782 171.876 39.369Z" stroke="#131112" stroke-width="6"/>
</g>
<defs>
<filter id="filter0_d_1015_136" x="246.514" y="222.768" width="36" height="36" filterUnits="userSpaceOnUse" color-interpolation-filters="sRGB">
<feFlood flood-opacity="0" result="BackgroundImageFix"/>
<feColorMatrix in="SourceAlpha" type="matrix" values="0 0 0 0 0 0 0 0 0 0 0 0 0 0 0 0 0 0 127 0" result="hardAlpha"/>
<feOffset dy="4"/>
<feGaussianBlur stdDeviation="2"/>
<feComposite in2="hardAlpha" operator="out"/>
<feColorMatrix type="matrix" values="0 0 0 0 0 0 0 0 0 0 0 0 0 0 0 0 0 0 0.2 0"/>
<feBlend mode="normal" in2="BackgroundImageFix" result="effect1_dropShadow_1015_136"/>
<feBlend mode="normal" in="SourceGraphic" in2="effect1_dropShadow_1015_136" result="shape"/>
</filter>
<filter id="filter1_d_1015_136" x="185.514" y="181.768" width="58" height="58" filterUnits="userSpaceOnUse" color-interpolation-filters="sRGB">
<feFlood flood-opacity="0" result="BackgroundImageFix"/>
<feColorMatrix in="SourceAlpha" type="matrix" values="0 0 0 0 0 0 0 0 0 0 0 0 0 0 0 0 0 0 127 0" result="hardAlpha"/>
<feOffset dy="4"/>
<feGaussianBlur stdDeviation="2"/>
<feComposite in2="hardAlpha" operator="out"/>
<feColorMatrix type="matrix" values="0 0 0 0 0 0 0 0 0 0 0 0 0 0 0 0 0 0 0.2 0"/>
<feBlend mode="normal" in2="BackgroundImageFix" result="effect1_dropShadow_1015_136"/>
<feBlend mode="normal" in="SourceGraphic" in2="effect1_dropShadow_1015_136" result="shape"/>
</filter>
<filter id="filter2_d_1015_136" x="22.3196" y="28.1292" width="197.909" height="190.625" filterUnits="userSpaceOnUse" color-interpolation-filters="sRGB">
<feFlood flood-opacity="0" result="BackgroundImageFix"/>
<feColorMatrix in="SourceAlpha" type="matrix" values="0 0 0 0 0 0 0 0 0 0 0 0 0 0 0 0 0 0 127 0" result="hardAlpha"/>
<feOffset dy="4"/>
<feGaussianBlur stdDeviation="2"/>
<feComposite in2="hardAlpha" operator="out"/>
<feColorMatrix type="matrix" values="0 0 0 0 0 0 0 0 0 0 0 0 0 0 0 0 0 0 0.2 0"/>
<feBlend mode="normal" in2="BackgroundImageFix" result="effect1_dropShadow_1015_136"/>
<feBlend mode="normal" in="SourceGraphic" in2="effect1_dropShadow_1015_136" result="shape"/>
</filter>
</defs>
</svg>
