<svg width="352" height="222" viewBox="0 0 352 222" fill="none" xmlns="http://www.w3.org/2000/svg">
<g filter="url(#filter0_d_1019_244)">
<rect width="324.662" height="97.027" rx="5.94439" transform="matrix(0.93969 -0.342027 0.342013 0.939695 4 124.554)" fill="#F3F4F7"/>
<rect x="-1.95805" y="-0.913052" width="327.717" height="100.082" rx="7.47208" transform="matrix(0.93969 -0.342027 0.342013 0.939695 4.19419 123.83)" stroke="#131112" stroke-width="3.05538"/>
</g>
<g filter="url(#filter1_d_1019_244)">
<g clip-path="url(#clip0_1019_244)">
<rect width="324.662" height="97.027" rx="5.94439" transform="matrix(0.93969 -0.342027 0.342013 0.939695 9.75427 113.043)" fill="#FF8600"/>
<path d="M77.4055 159.961C77.7577 158.735 78.2642 157.727 78.9251 156.938C79.6299 156.132 80.3669 155.415 81.1359 154.785C81.949 154.14 82.7481 153.525 83.5332 152.94C84.3463 152.295 85.0732 151.481 85.7139 150.499C86.1024 150.058 86.641 149.413 87.3299 148.564C88.0187 147.714 88.6695 146.829 89.2822 145.907C89.9229 144.925 90.4395 144.014 90.8318 143.172C91.2683 142.315 91.4063 141.666 91.2459 141.225C91.2299 141.181 91.1998 141.167 91.1558 141.183C91.0677 141.215 91.0156 141.209 90.9995 141.165L90.8192 141.081C90.5668 141.073 90.1742 141.091 89.6414 141.135C89.1086 141.179 88.7901 141.196 88.6859 141.184C82.761 142.592 77.9697 143.687 74.3122 144.469C70.6827 145.191 67.8163 145.611 65.713 145.728C63.6538 145.828 62.1794 145.617 61.2898 145.092C60.4003 144.567 59.747 143.732 59.33 142.587C59.1696 142.146 59.0814 141.629 59.0652 141.036C59.049 140.443 59.0548 139.842 59.0827 139.233C59.1546 138.608 59.2426 138.027 59.3466 137.491C59.4506 136.954 59.5646 136.513 59.6887 136.168C60.073 135.03 60.7097 133.9 61.5988 132.778C62.4878 131.656 63.4971 130.59 64.6266 129.58C65.7561 128.57 66.9097 127.627 68.0873 126.749C69.3089 125.855 70.4144 125.054 71.4038 124.344C72.6055 123.807 73.7351 123.071 74.7925 122.138C75.8779 121.144 77.0055 120.334 78.1751 119.709C78.792 119.484 79.387 119.542 79.96 119.882C80.533 120.223 80.9157 120.657 81.1082 121.186C81.3808 121.935 81.4351 122.564 81.271 123.073C81.1349 123.522 80.8646 123.945 80.4601 124.341C80.0836 124.678 79.633 125.017 79.1082 125.357C78.5675 125.654 78.0347 125.973 77.51 126.313C77.1895 126.53 76.7529 126.838 76.2002 127.239C75.6314 127.596 75.0706 127.975 74.5179 128.376C73.9651 128.776 73.4704 129.131 73.0338 129.44C72.5972 129.748 72.3429 129.941 72.2708 130.017C71.1133 131.087 70.0138 132.111 68.9725 133.089C67.9591 134.006 67.086 134.898 66.3531 135.764C65.6643 136.613 65.1677 137.443 64.8635 138.252C64.5873 139.001 64.5995 139.721 64.9002 140.41L64.9242 140.476C65.5894 140.932 66.7493 141.034 68.4038 140.781C70.0583 140.528 71.9612 140.135 74.1125 139.601C76.3078 139.052 78.5912 138.47 80.9628 137.857C83.3784 137.227 85.6358 136.78 87.735 136.514C89.8343 136.249 91.6592 136.259 93.2097 136.543C94.7602 136.827 95.7901 137.6 96.2992 138.862C96.4756 139.346 96.574 139.959 96.5942 140.7C96.6585 141.426 96.5786 142.029 96.3544 142.509C95.7018 144.144 94.845 145.903 93.7838 147.787C92.7668 149.654 91.5854 151.481 90.2398 153.268C88.8782 155.011 87.3943 156.624 85.7882 158.107C84.2101 159.53 82.5418 160.636 80.7833 161.426C80.1664 161.651 79.5133 161.639 78.8242 161.391C78.119 161.098 77.6461 160.622 77.4055 159.961ZM112.062 142.93C111.994 143.703 111.95 144.543 111.931 145.448C111.895 146.31 111.791 147.121 111.619 147.882C111.447 148.643 111.154 149.349 110.742 149.998C110.313 150.603 109.659 151.066 108.777 151.387C107.235 151.948 105.821 152.038 104.535 151.658C103.233 151.234 102.042 150.569 100.964 149.664C99.9146 148.699 99.0088 147.581 98.2472 146.312C97.4857 145.042 96.8884 143.812 96.4554 142.622L91.1623 126.434C91.006 126.142 90.9598 125.809 91.0238 125.437C91.1158 125.004 91.268 124.599 91.4802 124.223C91.7205 123.786 92.0068 123.407 92.3392 123.087C92.7157 122.75 93.0802 122.517 93.4327 122.389C94.4462 122.02 95.4258 122.038 96.3714 122.442C97.301 122.803 97.9502 123.49 98.3191 124.503L98.5596 125.164C98.3636 126.134 98.3219 127.322 98.4345 128.728C98.547 130.134 98.7658 131.626 99.0908 133.205C99.4438 134.723 99.8789 136.261 100.396 137.82C100.913 139.378 101.471 140.772 102.068 142.002C102.709 143.215 103.375 144.221 104.064 145.018C104.737 145.771 105.392 146.131 106.029 146.099C106.25 146.019 106.54 145.788 106.901 145.408C107.305 145.011 107.66 144.408 107.964 143.598C108.268 142.789 108.506 141.729 108.678 140.419C108.834 139.065 108.795 137.382 108.562 135.371C108.329 133.36 107.842 130.993 107.1 128.268C106.358 125.544 105.269 122.348 103.834 118.678C103.834 118.129 103.98 117.777 104.272 117.62C104.609 117.448 104.953 117.298 105.306 117.169C105.703 117.025 106.041 116.927 106.321 116.875C106.586 116.778 106.928 116.828 107.349 117.024C107.65 117.165 108.012 117.407 108.437 117.751C108.862 118.096 109.082 118.29 109.098 118.334L120.879 147.206C121.12 147.867 121.144 148.482 120.952 149.051C120.76 149.62 120.333 150.025 119.672 150.266C119.452 150.346 119.179 150.42 118.855 150.488C118.53 150.556 118.19 150.58 117.833 150.561C117.477 150.541 117.126 150.469 116.782 150.345C116.497 150.248 116.285 150.076 116.144 149.828L112.615 143.627L112.062 142.93ZM130.077 140.64C129.996 140.42 129.924 140.221 129.86 140.045C129.84 139.853 129.886 139.636 129.998 139.396C130.286 138.543 130.633 137.643 131.037 136.697C131.425 135.708 131.8 134.748 132.16 133.818C132.504 132.845 132.796 131.865 133.036 130.88C133.277 129.894 133.428 128.94 133.492 128.019L133.348 127.622L125.339 132.559L124.347 132.919C123.73 133.144 122.943 133.381 121.986 133.629C121.072 133.862 120.127 134.006 119.149 134.063C118.2 134.059 117.321 133.905 116.511 133.601C115.746 133.281 115.203 132.68 114.882 131.798C114.557 130.769 114.677 129.453 115.242 127.85C115.806 126.247 116.555 124.603 117.488 122.916C118.421 121.229 119.386 119.63 120.383 118.119C121.424 116.592 122.259 115.39 122.888 114.513C123.621 113.647 124.57 112.827 125.735 112.054C126.885 111.236 127.989 110.635 129.046 110.25C129.927 109.929 130.763 109.825 131.552 109.937C132.325 110.005 132.888 110.523 133.241 111.493C133.385 111.889 133.478 112.28 133.518 112.665C133.602 113.033 133.426 113.372 132.989 113.68C131.531 114.061 130.249 114.653 129.144 115.454C128.022 116.212 127.031 117.122 126.17 118.183C125.309 119.245 124.562 120.416 123.929 121.694C123.281 122.928 122.67 124.198 122.098 125.504C121.946 125.909 121.775 126.47 121.587 127.187C121.383 127.86 121.297 128.241 121.329 128.329L121.353 128.395C122.499 127.978 123.583 127.459 124.604 126.838C125.669 126.2 126.713 125.571 127.734 124.95C128.784 124.268 129.819 123.617 130.841 122.996C131.906 122.358 133.034 121.823 134.224 121.39C134.664 121.23 135.165 121.097 135.726 120.993C136.271 120.845 136.803 120.8 137.324 120.86C137.889 120.904 138.376 121.076 138.785 121.377C139.221 121.617 139.544 122.024 139.753 122.596C140.057 123.434 140.134 124.329 139.982 125.283C139.858 126.176 139.578 127.326 139.141 128.732C138.733 130.079 138.171 131.755 137.454 133.763C136.782 135.754 136.027 138.274 135.191 141.323C135.151 141.488 134.963 141.656 134.626 141.828C134.334 141.985 134.077 142.103 133.857 142.183C133.24 142.408 132.505 142.376 131.651 142.088C130.842 141.784 130.317 141.301 130.077 140.64ZM144.179 116.494C143.562 116.719 143.067 117.073 142.695 117.558C142.322 118.043 141.805 118.406 141.144 118.647C141.056 118.679 140.814 118.767 140.417 118.911C140.049 118.995 139.821 119.054 139.732 119.086C139.476 118.929 139.213 118.825 138.945 118.773C138.677 118.721 138.408 118.669 138.14 118.617C137.855 118.521 137.585 118.395 137.328 118.239C137.116 118.067 136.938 117.782 136.793 117.386C136.553 116.725 136.625 116.1 137.009 115.511C137.377 114.878 137.858 114.279 138.451 113.714C139.044 113.148 139.644 112.605 140.253 112.084C140.906 111.547 141.389 111.022 141.701 110.509L140.642 107.601C139.456 104.34 138.115 101.136 136.619 97.9871C135.108 94.7945 133.767 91.5898 132.596 88.3731C132.275 87.4918 132.287 86.8387 132.632 86.414C132.976 85.9892 133.523 85.6405 134.272 85.3678C135.153 85.047 135.888 85.0789 136.478 85.4633C137.095 85.7876 137.628 86.2923 138.076 86.9772C138.509 87.6181 138.878 88.3572 139.183 89.1944C139.472 89.9876 139.742 90.6626 139.995 91.2194C140.203 91.7922 140.616 92.7897 141.234 94.2117C141.851 95.6338 142.5 97.144 143.182 98.7423C143.863 100.341 144.513 101.851 145.13 103.273C145.748 104.695 146.183 105.684 146.435 106.241C146.595 106.133 146.886 105.903 147.306 105.55C147.755 105.137 148.234 104.738 148.742 104.354C149.235 103.925 149.692 103.534 150.112 103.181C150.577 102.813 150.903 102.544 151.091 102.376C152.061 101.474 153.058 100.512 154.083 99.4903C155.093 98.4243 156.236 97.6587 157.514 97.1936C158.395 96.8728 159.169 96.9407 159.834 97.3972C160.527 97.7936 161.018 98.3884 161.307 99.1816C161.515 99.7545 161.447 100.253 161.103 100.678C160.758 101.103 160.384 101.514 159.979 101.91L149.586 110.784C149.485 110.92 149.385 111.056 149.285 111.192C149.169 111.284 149.069 111.421 148.985 111.601L149.755 113.716C150.316 115.258 150.923 116.859 151.577 118.517C152.258 120.116 152.99 121.646 153.772 123.108C154.473 124.35 155.189 125.561 155.918 126.743C156.648 127.925 157.253 129.176 157.734 130.498C157.878 130.895 157.939 131.472 157.915 132.229C157.891 132.986 157.593 133.469 157.02 133.678C155.83 134.111 154.732 134.111 153.727 133.679C152.721 133.246 151.958 132.451 151.436 131.293C150.382 129.082 149.226 126.659 147.967 124.023C146.752 121.371 145.578 118.829 144.443 116.398L144.179 116.494ZM179.311 104.68C179.171 105.529 179.021 106.557 178.862 107.763C178.73 108.909 178.586 110.159 178.43 111.513C178.258 112.823 178.028 114.179 177.74 115.581C177.48 116.924 177.144 118.194 176.732 119.392C176.363 120.574 175.903 121.64 175.35 122.589C174.782 123.495 174.103 124.166 173.314 124.603C172.961 124.731 172.557 124.854 172.1 124.97C171.627 125.042 171.146 125.093 170.658 125.121C170.153 125.105 169.698 125.021 169.293 124.869C168.917 124.657 168.64 124.308 168.464 123.823C166.872 119.313 165.719 115.116 165.005 111.234C164.274 107.308 164.065 103.717 164.377 100.46C164.672 97.1582 165.519 94.2052 166.916 91.6007C168.314 88.9961 170.344 86.76 173.008 84.8922C173.096 84.8602 173.25 84.804 173.47 84.7238C173.719 84.5835 173.887 84.4973 173.975 84.4653C175.281 83.94 176.453 84.2121 177.491 85.2815C178.557 86.2908 179.719 88.1133 180.978 90.7491C182.265 93.3248 183.73 96.7338 185.374 100.976C187.046 105.158 189.14 110.159 191.658 115.98C191.967 116.417 192.185 116.811 192.313 117.164C192.486 117.5 192.66 117.911 192.837 118.395C193.077 119.056 193.063 119.635 192.795 120.132C192.511 120.585 192.06 120.924 191.443 121.148C190.165 121.613 189.134 121.59 188.348 121.077C187.563 120.564 186.866 119.745 186.256 118.62C186.24 118.576 186.068 118.239 185.739 117.61C185.455 116.965 185.094 116.248 184.657 115.459C184.248 114.61 183.839 113.761 183.43 112.912C183.021 112.062 182.691 111.359 182.438 110.802L182.342 110.538C182.093 110.13 181.827 109.603 181.542 108.958C181.302 108.297 181.025 107.674 180.712 107.089C180.352 106.372 180.013 105.647 179.696 104.914L179.311 104.68ZM173.094 92.1217C172.225 93.436 171.49 95.0508 170.89 96.966C170.29 98.8812 170.004 100.632 170.032 102.219C170.052 102.96 170.139 103.951 170.291 105.193C170.444 106.435 170.619 107.669 170.815 108.895C171.04 110.061 171.263 111.152 171.483 112.17C171.688 113.143 171.838 113.762 171.934 114.027C171.979 114.011 172.007 113.951 172.019 113.846C172.075 113.726 172.117 113.636 172.145 113.576C173.914 109.938 174.797 106.398 174.792 102.956C174.815 99.4548 174.249 95.8432 173.094 92.1217ZM195.804 116.717C193.759 112.471 192.013 108.839 190.566 105.823C189.119 102.807 187.9 100.281 186.91 98.246C185.92 96.2111 185.112 94.6088 184.487 93.4391C183.89 92.2094 183.435 91.3021 183.122 90.7172C182.793 90.0883 182.567 89.6717 182.443 89.4675C182.318 89.2632 182.248 89.139 182.232 89.0949L182.136 88.8305C181.96 88.3458 182.014 87.8771 182.298 87.4243C182.61 86.9114 182.987 86.5747 183.427 86.4143C184.088 86.1737 184.834 86.0273 185.663 85.975C186.536 85.9066 187.233 86.1768 187.754 86.7856C188.937 88.8004 189.995 90.8854 190.929 93.0406C191.907 95.1797 192.841 97.3348 193.731 99.506C194.649 101.617 195.598 103.742 196.576 105.881C197.598 108.004 198.766 110.049 200.081 112.016C200.113 112.104 200.199 112.272 200.34 112.521C200.524 112.753 200.694 113.015 200.851 113.308C201.051 113.584 201.221 113.846 201.362 114.095C201.502 114.343 201.588 114.511 201.62 114.6L201.668 114.732C201.684 114.776 201.722 114.812 201.783 114.84C201.975 115.369 201.925 115.986 201.633 116.691C201.341 117.396 200.914 117.801 200.353 117.905C200.205 117.909 199.85 117.963 199.29 118.068C198.757 118.112 198.386 118.122 198.178 118.098C198.03 118.102 197.821 118.078 197.553 118.026C197.268 117.93 196.984 117.834 196.699 117.738C196.459 117.626 196.233 117.484 196.02 117.312C195.808 117.139 195.736 116.941 195.804 116.717ZM174.565 69.8788C174.452 69.5703 174.599 69.2177 175.003 68.8209C175.436 68.3641 175.784 68.0875 176.048 67.9913C176.709 67.7507 177.509 67.6844 178.446 67.7923C179.412 67.8401 180.031 68.2385 180.303 68.9876C180.576 69.7367 180.65 70.2836 180.526 70.6282C180.446 70.9567 180.032 71.2573 179.283 71.53C178.489 71.8187 177.578 71.851 176.548 71.6269C175.563 71.3868 174.901 70.8041 174.565 69.8788ZM219.682 108.325C218.744 107.668 217.774 106.649 216.772 105.267C215.798 103.825 214.8 102.317 213.778 100.743C212.784 99.1084 211.836 97.5322 210.934 96.0141C210.016 94.4519 209.205 93.2502 208.499 92.4091C207.822 91.5079 207.261 91.0633 206.816 91.0755C206.372 91.0876 206.126 91.8509 206.078 93.3653L206.775 113.173C206.779 113.87 206.675 114.407 206.463 114.783C206.234 115.116 205.768 115.41 205.063 115.667C204.71 115.795 204.32 115.888 203.891 115.944C203.446 115.956 203.008 115.916 202.575 115.824C202.142 115.732 201.737 115.58 201.361 115.368C201.028 115.139 200.768 114.835 200.579 114.454C200.519 113.878 200.276 112.868 199.851 111.426C199.47 109.968 198.965 108.305 198.335 106.438C197.706 104.572 197.022 102.625 196.285 100.598C195.575 98.5107 194.877 96.5938 194.192 94.8473C193.534 93.0406 192.951 91.5063 192.442 90.2445C191.916 88.9386 191.56 88.0953 191.371 87.7148C191.211 87.2741 191.05 86.8335 190.89 86.3928C190.758 85.8921 190.663 85.4274 190.607 84.9987C190.595 84.554 190.681 84.1734 190.865 83.8568C191.077 83.4802 191.492 83.1796 192.109 82.955C192.946 82.6503 193.846 82.7221 194.807 83.1706C195.813 83.6029 196.46 84.2157 196.749 85.0089C197.166 86.1546 197.517 87.3243 197.801 88.5181C198.114 89.6518 198.479 90.7915 198.896 91.9372C199.153 92.6423 199.369 93.2372 199.546 93.7219C199.722 94.2066 200.027 94.7694 200.46 95.4103C200.464 95.0096 200.459 94.3125 200.447 93.319C200.435 92.3254 200.428 91.2797 200.428 90.182C200.472 89.0682 200.496 88.0366 200.499 87.0871C200.487 86.0935 200.483 85.3964 200.487 84.9957C200.474 84.0022 200.632 82.9965 200.961 81.9788C201.273 80.917 201.92 80.1576 202.901 79.7006C203.546 79.416 204.205 79.3757 204.878 79.5798C205.595 79.7679 206.272 80.1203 206.91 80.6369C207.531 81.1095 208.102 81.6502 208.623 82.259C209.128 82.8237 209.534 83.3244 209.843 83.761L219.403 98.9202L224.921 105.445C224.981 105.473 225.051 105.597 225.132 105.817C225.196 105.994 225.244 106.126 225.276 106.214C225.468 106.743 225.529 107.32 225.457 107.945C225.413 108.51 225.082 108.904 224.465 109.129C223.716 109.401 222.873 109.484 221.936 109.376C220.982 109.224 220.231 108.874 219.682 108.325ZM234.331 84.6538C234.191 85.5032 234.041 86.5309 233.881 87.7369C233.749 88.8827 233.605 90.1328 233.449 91.487C233.277 92.7971 233.047 94.1533 232.759 95.5556C232.499 96.8978 232.163 98.1679 231.751 99.366C231.383 100.548 230.922 101.614 230.37 102.563C229.801 103.469 229.122 104.14 228.333 104.577C227.981 104.706 227.576 104.828 227.119 104.944C226.646 105.016 226.166 105.067 225.677 105.095C225.172 105.079 224.717 104.995 224.313 104.843C223.936 104.631 223.66 104.282 223.483 103.797C221.891 99.2868 220.738 95.0905 220.024 91.2085C219.294 87.2825 219.084 83.6909 219.396 80.4336C219.691 77.1323 220.538 74.1794 221.935 71.5748C223.333 68.9703 225.363 66.7341 228.027 64.8664C228.115 64.8343 228.269 64.7781 228.49 64.698C228.738 64.5577 228.906 64.4715 228.994 64.4394C230.3 63.9142 231.472 64.1862 232.51 65.2556C233.576 66.2649 234.739 68.0875 235.997 70.7233C237.284 73.299 238.749 76.7079 240.393 80.9502C242.065 85.1323 244.16 90.1336 246.677 95.9541C246.986 96.3907 247.205 96.7852 247.333 97.1377C247.505 97.4742 247.68 97.8848 247.856 98.3695C248.097 99.0305 248.083 99.6094 247.814 100.106C247.53 100.559 247.08 100.898 246.463 101.122C245.185 101.587 244.153 101.564 243.368 101.051C242.582 100.539 241.885 99.7195 241.276 98.5939C241.26 98.5498 241.087 98.2133 240.759 97.5844C240.474 96.9395 240.113 96.2225 239.676 95.4333C239.267 94.5841 238.858 93.7349 238.45 92.8857C238.041 92.0364 237.71 91.3334 237.457 90.7766L237.361 90.5122C237.113 90.1037 236.846 89.5769 236.561 88.932C236.321 88.271 236.044 87.6481 235.732 87.0633C235.371 86.3462 235.032 85.6212 234.715 84.8881L234.331 84.6538ZM228.113 72.0958C227.244 73.4101 226.51 75.0249 225.909 76.9401C225.309 78.8554 225.023 80.6062 225.051 82.1927C225.072 82.9339 225.158 83.9254 225.311 85.1674C225.463 86.4093 225.638 87.6432 225.835 88.8691C226.059 90.0349 226.282 91.1265 226.503 92.1441C226.707 93.1176 226.858 93.7365 226.954 94.0009C226.998 93.9848 227.026 93.9247 227.038 93.8206C227.094 93.7004 227.136 93.6102 227.164 93.5501C228.934 89.9118 229.816 86.3719 229.811 82.9305C229.834 79.4289 229.268 75.8174 228.113 72.0958ZM240.794 78.1844L240.746 78.0523C240.617 77.6997 240.599 77.3071 240.691 76.8744C240.811 76.3816 240.955 75.9549 241.124 75.5942L239.897 72.2233C238.566 68.5659 237.2 65.0207 235.801 61.5876C234.446 58.1386 232.919 54.6275 231.219 51.0543C231.01 50.4815 231.056 49.9907 231.357 49.5819C231.641 49.1291 232.004 48.8225 232.444 48.6621C233.598 47.9927 234.627 47.9423 235.533 48.511C236.483 49.0636 237.338 49.9747 238.1 51.2445C238.861 52.5143 239.555 54.0085 240.18 55.727C240.79 57.4015 241.339 59.0479 241.828 60.6664C242.362 62.2687 242.853 63.6868 243.302 64.9207C243.751 66.1545 244.21 66.9356 244.679 67.264C245.171 66.8351 245.426 66.6428 245.442 66.6868C245.486 66.6708 245.494 66.6928 245.466 66.7529C245.466 66.7529 245.494 66.6928 245.55 66.5726C245.634 66.3923 245.932 65.9094 246.445 65.124C247.142 64.0221 248.097 63.1504 249.311 62.509C250.553 61.8075 251.746 61.2483 252.892 60.8313C255.724 60.2495 257.902 60.4051 259.424 61.2981C260.931 62.147 261.955 63.5208 262.496 65.4197C263.022 67.2745 263.121 69.534 262.793 72.1984C262.493 74.8026 261.939 77.5992 261.131 80.5882C260.306 83.5331 259.305 86.5421 258.128 89.6154C256.935 92.6445 255.76 95.5174 254.603 98.2341C254.207 98.3784 253.72 98.4808 253.143 98.541C252.61 98.5853 252.076 98.5554 251.539 98.4514C251.002 98.3474 250.507 98.1532 250.054 97.8689C249.601 97.5846 249.279 97.178 249.086 96.6492L242.807 79.3978L240.794 78.1844ZM249.586 80.7479C249.635 80.8801 249.747 81.1885 249.923 81.6732C250.144 82.1419 250.38 82.6547 250.633 83.2115C250.869 83.7242 251.076 84.2229 251.252 84.7077C251.473 85.1763 251.607 85.4768 251.655 85.609C251.703 85.7412 251.791 85.9835 251.92 86.336C252.032 86.6445 252.16 86.997 252.305 87.3936C252.477 87.7301 252.627 88.0746 252.756 88.4271C252.868 88.7356 252.948 88.9559 252.996 89.0881C253.449 88.8235 253.907 87.958 254.372 86.4915C254.836 85.0251 255.258 83.3743 255.638 81.5393C256.002 79.6602 256.3 77.8052 256.532 75.9742C256.764 74.1432 256.918 72.7149 256.994 71.6893C257.009 71.1845 256.993 70.5915 256.945 69.9105C256.897 69.2294 256.782 68.5724 256.602 67.9395C256.449 67.2464 256.189 66.6676 255.82 66.2029C255.495 65.7223 255.035 65.4159 254.438 65.2839C253.644 65.5726 252.857 66.0836 252.076 66.817C251.339 67.5344 250.643 68.3619 249.986 69.2996C249.373 70.2212 248.851 71.1849 248.418 72.1907C248.014 73.1363 247.778 73.9957 247.71 74.769C247.746 75.0053 247.846 75.4179 248.011 76.0068C248.203 76.5356 248.39 77.1165 248.57 77.7494C248.795 78.3663 248.989 78.9692 249.153 79.5581C249.362 80.131 249.506 80.5275 249.586 80.7479ZM269.473 87.5074C268.799 85.6567 268.185 83.834 267.632 82.0393C267.079 80.2446 266.465 78.4219 265.792 76.5712C263.831 71.5959 261.999 66.6987 260.295 61.8795C258.575 57.0163 256.55 52.1392 254.221 47.2482C253.916 46.4109 253.914 45.7879 254.214 45.3792C254.499 44.9264 255.037 44.5556 255.831 44.2669C256.844 43.8981 257.816 43.8938 258.745 44.2541C259.703 44.5542 260.396 45.2251 260.825 46.2666C263.014 52.5559 265.342 58.7451 267.807 64.834C270.301 70.8628 272.695 77.0278 274.988 83.3291L276.84 88.4187C276.704 88.8674 276.458 89.3563 276.102 89.8852C275.745 90.4142 275.309 90.7228 274.792 90.8111C273.434 91.0559 272.324 90.8859 271.462 90.3013C270.585 89.6725 269.922 88.7412 269.473 87.5074ZM298.153 61.0497C298.353 61.8749 298.468 62.5319 298.496 63.0207C298.568 63.4934 298.536 63.9541 298.4 64.4029C298.264 64.8517 298.026 65.3625 297.686 65.9355C297.329 66.4645 296.861 67.2339 296.28 68.2436C295.683 69.2093 294.969 70.4675 294.136 72.0183C293.303 73.569 292.326 75.5464 291.205 77.9505C290.74 78.8681 290.262 79.8158 289.769 80.7935C289.277 81.7712 288.716 82.6988 288.088 83.5764C287.487 84.3939 286.81 85.1393 286.057 85.8126C285.304 86.4859 284.443 86.9989 283.473 87.3518C281.579 88.0414 279.958 87.9077 278.612 86.9506C277.265 85.9935 276.287 84.6777 275.678 83.0032C275.277 81.9016 274.962 80.9682 274.734 80.2031C274.549 79.4219 274.372 78.3883 274.204 77.1023C273.559 76.8381 273.004 76.6159 272.539 76.4357C272.058 76.2115 271.714 75.813 271.505 75.2402C271.313 74.7114 271.294 74.3188 271.451 74.0623C271.651 73.7898 271.897 73.5754 272.19 73.4191C272.51 73.2026 272.808 72.9942 273.085 72.7938C273.361 72.5934 273.517 72.337 273.553 72.0244C273.545 71.728 273.523 71.1871 273.487 70.4019C273.495 69.6006 273.494 68.7773 273.486 67.932C273.462 67.0426 273.439 66.2273 273.419 65.4861C273.427 64.6848 273.427 64.136 273.419 63.8395C273.455 62.9781 273.512 62.1087 273.592 61.2313C273.7 60.2938 273.884 59.4284 274.144 58.635C274.449 57.8257 274.859 57.1024 275.376 56.4652C275.936 55.812 276.679 55.317 277.605 54.9802C278.134 54.7877 278.861 54.7975 279.786 55.0096C280.756 55.2056 281.721 55.5278 282.683 55.9763C283.629 56.3806 284.48 56.8691 285.238 57.4418C285.995 58.0145 286.47 58.5652 286.662 59.094C286.903 59.755 286.973 60.428 286.873 61.1131C286.757 61.7542 286.545 62.4053 286.237 63.0664C285.956 63.6675 285.624 64.2625 285.24 64.8516C284.855 65.4406 284.507 65.9916 284.194 66.5045C284.15 66.5205 284.078 66.5967 283.978 66.7329C283.878 66.8692 283.792 66.9754 283.72 67.0515C283.692 67.1116 283.622 67.2619 283.51 67.5023C283.426 67.6826 283.328 67.893 283.215 68.1334C283.103 68.3738 282.991 68.6142 282.879 68.8546C282.811 69.079 282.763 69.2212 282.735 69.2813C282.651 69.4617 282.467 69.7782 282.182 70.231C281.926 70.6237 281.642 71.0765 281.329 71.5894C281.001 72.0583 280.695 72.5191 280.41 72.9719C280.154 73.3646 279.976 73.6291 279.876 73.7653L279.804 74.3903C279.78 74.5987 279.836 75.0273 279.972 75.6763C280.137 76.2652 280.311 76.9502 280.496 77.7314C280.68 78.5126 280.873 79.3158 281.074 80.1411C281.302 80.9062 281.505 81.5311 281.681 82.0159C281.697 82.0599 281.735 82.096 281.795 82.124C281.915 82.18 281.998 82.2 282.042 82.184C282.394 82.0557 282.668 81.7812 282.865 81.3605C283.061 80.9397 283.311 80.5991 283.616 80.3386L290.631 66.7069L291.825 61.5564C291.933 61.1677 292.231 60.6849 292.72 60.1078C293.237 59.4706 293.826 59.0318 294.486 58.7912C295.131 58.5065 295.776 58.4963 296.422 58.7605C297.111 59.0087 297.688 59.7718 298.153 61.0497ZM281.735 61.1868C281.891 60.9303 281.883 60.6339 281.711 60.2974C281.538 59.9609 281.294 59.7006 280.977 59.5164C280.705 59.3161 280.406 59.2501 280.082 59.3183C279.741 59.3425 279.511 59.601 279.391 60.0938C279.323 60.3181 279.209 60.7589 279.049 61.416C278.933 62.057 278.803 62.7281 278.659 63.4293C278.543 64.0703 278.447 64.6292 278.371 65.106C278.295 65.5828 278.307 65.7531 278.407 65.6168L281.735 61.1868Z" fill="#131112"/>
</g>
<rect x="-1.95805" y="-0.913052" width="327.717" height="100.082" rx="7.47208" transform="matrix(0.93969 -0.342027 0.342013 0.939695 9.94846 112.318)" stroke="#131112" stroke-width="3.05538"/>
</g>
<defs>
<filter id="filter0_d_1019_244" x="0.635358" y="12.1281" width="344.995" height="208.948" filterUnits="userSpaceOnUse" color-interpolation-filters="sRGB">
<feFlood flood-opacity="0" result="BackgroundImageFix"/>
<feColorMatrix in="SourceAlpha" type="matrix" values="0 0 0 0 0 0 0 0 0 0 0 0 0 0 0 0 0 0 127 0" result="hardAlpha"/>
<feOffset dy="1.98146"/>
<feGaussianBlur stdDeviation="0.990732"/>
<feComposite in2="hardAlpha" operator="out"/>
<feColorMatrix type="matrix" values="0 0 0 0 0.0745098 0 0 0 0 0.0666667 0 0 0 0 0.0705882 0 0 0 0.1 0"/>
<feBlend mode="normal" in2="BackgroundImageFix" result="effect1_dropShadow_1019_244"/>
<feBlend mode="normal" in="SourceGraphic" in2="effect1_dropShadow_1019_244" result="shape"/>
</filter>
<filter id="filter1_d_1019_244" x="6.38963" y="0.616943" width="344.995" height="208.948" filterUnits="userSpaceOnUse" color-interpolation-filters="sRGB">
<feFlood flood-opacity="0" result="BackgroundImageFix"/>
<feColorMatrix in="SourceAlpha" type="matrix" values="0 0 0 0 0 0 0 0 0 0 0 0 0 0 0 0 0 0 127 0" result="hardAlpha"/>
<feOffset dy="1.98146"/>
<feGaussianBlur stdDeviation="0.990732"/>
<feComposite in2="hardAlpha" operator="out"/>
<feColorMatrix type="matrix" values="0 0 0 0 0.0745098 0 0 0 0 0.0666667 0 0 0 0 0.0705882 0 0 0 0.1 0"/>
<feBlend mode="normal" in2="BackgroundImageFix" result="effect1_dropShadow_1019_244"/>
<feBlend mode="normal" in="SourceGraphic" in2="effect1_dropShadow_1019_244" result="shape"/>
</filter>
<clipPath id="clip0_1019_244">
<rect width="324.662" height="97.027" rx="5.94439" transform="matrix(0.93969 -0.342027 0.342013 0.939695 9.75427 113.043)" fill="white"/>
</clipPath>
</defs>
</svg>
